<svg width="96" height="60" viewBox="0 0 96 60" fill="none" xmlns="http://www.w3.org/2000/svg">
<path fill-rule="evenodd" clip-rule="evenodd" d="M60.0775 0.0515116C57.6525 0.178799 54.9888 0.40881 39.1486 1.85832C34.0757 2.32249 27.9833 2.87236 25.61 3.08015C10.5917 4.39514 6.11905 5.05497 3.52676 6.33795C2.3578 6.91643 1.78098 7.59264 1.65444 8.53289C1.61323 8.83925 1.54246 9.09 1.49715 9.09C1.45195 9.09 1.17039 9.30672 0.871574 9.5715C-0.0670672 10.4034 -0.26006 11.5053 0.353439 12.5303C0.498642 12.7729 1.57623 13.9523 2.74821 15.1513C3.92008 16.3503 5.04373 17.5036 5.24525 17.7143C5.5952 18.0804 5.62271 18.1697 5.86716 19.7347C6.17418 21.6999 6.67041 24.6465 7.11012 27.1144C8.20756 33.2739 9.63683 41.3319 9.81687 42.3741C10.297 45.1529 10.2594 45.0943 14.6065 49.8373C15.9712 51.3262 17.8871 53.42 18.8641 54.4903C22.2967 58.2506 23.6898 59.1221 27.3034 59.7694C28.6953 60.0187 32.4088 60.0794 34.3481 59.8846C35.8776 59.7308 45.4912 58.4821 50.4218 57.7966C51.6678 57.6234 54.5077 57.2387 56.7326 56.9417C67.0851 55.5599 76.9959 54.1357 79.0093 53.7404C82.1962 53.115 84.1597 52.0109 85.2096 50.2541C85.9779 48.9686 85.9055 49.3208 88.1377 35.9937C88.6129 33.1572 89.1448 29.951 89.3199 28.869C89.495 27.787 89.8589 25.538 90.1284 23.8711C90.3981 22.2042 90.6616 20.7368 90.7139 20.61C90.7861 20.4353 90.9605 20.3504 91.4358 20.259C92.4923 20.0556 94.0703 19.4822 94.7295 19.0623C95.6036 18.5054 96 17.8697 96 17.025C96 15.8831 95.3385 15.0039 94.1094 14.5122C93.5674 14.2954 93.538 14.2648 93.6332 14.0181C93.8118 13.5549 93.7509 12.631 93.508 12.1217C93.3831 11.8598 92.9639 11.3537 92.5739 10.9942C91.9503 10.419 91.533 10.1805 89.0517 8.98058C86.4972 7.74513 79.696 4.60101 75.0179 2.49295C71.9725 1.12064 70.0044 0.548538 67.1967 0.219526C65.4636 0.0164184 62.2094 -0.0603569 60.0775 0.0515116ZM57.4338 1.38277C55.1499 1.56493 45.5165 2.43839 36.8832 3.24625C34.4209 3.47669 30.9985 3.78624 29.2778 3.93426C12.0058 5.4196 7.39977 6.0369 4.57393 7.24513C2.90312 7.95951 2.57258 8.6857 3.27465 10.1002C3.50292 10.5601 4.00509 11.0835 5.84407 12.7787C7.10128 13.9374 9.00456 15.7236 10.0736 16.748C11.1428 17.7724 12.2602 18.7822 12.5569 18.992C16.0386 21.4548 20.5119 22.2653 28.0912 21.8066C38.2482 21.1921 54.8505 19.6517 68.3295 18.0732C69.1008 17.9829 70.994 17.7657 72.5367 17.5906C87.0112 15.9476 90.5836 15.3163 91.9743 14.155C92.8133 13.4545 92.6101 12.5324 91.4271 11.6721C90.4739 10.979 87.9599 9.75813 79.6566 5.95598C72.3133 2.59333 71.8376 2.39596 69.9476 1.92722C67.7664 1.38638 66.8584 1.30089 62.9356 1.2676C60.5067 1.24697 58.6482 1.28589 57.4338 1.38277ZM60.5083 2.45722C58.8698 2.52325 56.2327 2.73476 51.2848 3.19702C48.4962 3.45755 44.6126 3.81463 42.6546 3.99052C40.6967 4.1664 37.8811 4.42725 36.3978 4.57017C34.9144 4.71309 31.2736 5.04625 28.3069 5.3105C25.3403 5.57486 22.3791 5.83869 21.7264 5.89685C11.4307 6.81435 7.74282 7.40974 6.22596 8.39922C5.4952 8.87594 5.47103 9.81395 6.17029 10.5652C6.30093 10.7057 7.13601 11.4522 8.026 12.2243C8.91599 12.9964 10.4937 14.3832 11.532 15.3063C13.953 17.4583 14.1379 17.606 15.198 18.2341C17.5585 19.6325 20.6362 20.3641 24.1455 20.3608C25.7209 20.3593 37.305 19.4759 44.3807 18.8178C45.9233 18.6743 48.7632 18.4135 50.6915 18.2381C52.6198 18.0628 56.1393 17.7294 58.5126 17.4972C68.4276 16.5271 83.4059 14.9202 85.4126 14.6111C87.22 14.3328 88.341 13.994 88.7952 13.5889C89.0524 13.3594 89.0407 12.8003 88.7717 12.4632C88.5185 12.1459 86.074 10.9141 79.1711 7.62539C71.7824 4.10526 70.6828 3.63588 68.6251 3.12364C67.9422 2.95361 66.8195 2.74614 66.1304 2.66256C64.8388 2.50592 61.9338 2.39979 60.5083 2.45722ZM58.4587 3.56559C56.176 3.73924 52.2083 4.0959 44.3267 4.8357C40.0251 5.23947 34.9036 5.71608 32.9457 5.89473C30.9877 6.07338 28.9003 6.26755 28.3069 6.32615C27.7136 6.38474 24.5825 6.67238 21.3489 6.96545C13.7924 7.65017 12.203 7.83945 9.67059 8.35647C8.53809 8.58776 7.17248 9.01205 6.9345 9.20676C6.66427 9.42784 7.09621 9.89584 9.37447 11.8502C10.5908 12.8936 12.2413 14.3296 13.0423 15.0412C13.8433 15.7528 14.8208 16.5471 15.2144 16.8066C16.6897 17.7786 18.3753 18.4558 20.4015 18.8905C21.8305 19.1971 25.1506 19.2649 27.9294 19.0443C45.0633 17.6838 57.7898 16.4986 74.91 14.6693C76.8086 14.4664 79.0659 14.2261 79.9263 14.1354C84.197 13.6848 87.027 13.271 87.4557 13.0346C87.5978 12.9562 87.5636 12.9018 87.2558 12.7168C87.0515 12.5941 86.849 12.4935 86.8058 12.4933C86.7627 12.4931 85.3306 11.8078 83.6234 10.9706C81.9163 10.1334 79.0875 8.76386 77.3372 7.92729C68.8173 3.85483 67.8437 3.56346 62.558 3.50359C60.9857 3.48573 59.141 3.51369 58.4587 3.56559ZM59.1599 5.26435C58.0326 5.36994 55.6296 5.58209 53.8199 5.73597C49.7729 6.07997 42.9061 6.68164 39.7959 6.96482C38.5202 7.08094 35.9959 7.29585 34.1863 7.44239C32.3766 7.58903 29.561 7.82722 27.9294 7.97185C24.93 8.2378 20.6183 8.57617 17.8342 8.76418C16.0616 8.88392 15.3047 9.1118 14.6545 9.72144C14.2101 10.1382 14.1129 10.502 14.3638 10.8099C14.5252 11.0079 15.9039 12.2088 17.8968 13.8875C21.2112 16.6792 23.0772 17.8593 23.8677 17.6638C24.0807 17.6112 24.1537 17.5259 24.1537 17.3299C24.1537 17.0505 24.0092 16.9318 22.5132 15.9801C21.28 15.1957 18.38 12.8674 15.9592 10.7184L15.5774 10.3794L16.0089 10.1999C16.3249 10.0684 17.4799 9.93954 20.324 9.71836C26.3285 9.25121 30.4089 8.91444 34.9953 8.50758C39.5141 8.10658 48.4629 7.32445 49.6127 7.22992C49.9984 7.19823 52.7373 6.9578 55.6992 6.69557C64.8294 5.88728 64.9145 5.89866 71.0264 8.74748C72.2724 9.32831 74.2627 10.2743 75.4494 10.8498C77.9517 12.0633 77.9871 11.9345 75.0718 12.2227C74.0928 12.3195 72.151 12.5158 70.7567 12.6589C56.4173 14.1308 46.3449 15.0407 33.1614 16.055C29.254 16.3556 27.3342 16.5617 26.0982 16.8134C25.1309 17.0103 25.1246 17.0136 25.1246 17.3163C25.1246 17.8331 25.5717 17.9097 27.39 17.7045C27.8943 17.6476 29.8118 17.4826 31.6511 17.3378C33.4905 17.1929 35.9177 16.9997 37.045 16.9084C38.1723 16.817 40.551 16.6249 42.331 16.4812C49.6592 15.8897 55.9452 15.3154 63.8525 14.5148C65.0095 14.3976 67.1455 14.182 68.5991 14.0358C74.242 13.4681 78.383 13.0188 78.8515 12.9234C79.5964 12.7719 79.9009 12.6319 80.0387 12.3781C80.2773 11.9386 80.0184 11.6708 78.8193 11.1171C78.2119 10.8366 75.9672 9.79205 73.8312 8.79587C67.3015 5.75064 66.6261 5.49255 64.4463 5.21086C62.8849 5.00914 61.7643 5.02051 59.1599 5.26435ZM1.40276 10.6356C1.01958 11.0658 0.97848 11.4309 1.2567 11.9329C1.48335 12.3418 10.5573 21.4526 11.8395 22.5586C13.3668 23.876 15.305 24.8256 17.6281 25.3944C21.5231 26.3481 26.0182 26.3175 38.8789 25.2499C44.0742 24.8187 55.0162 23.7603 59.7532 23.2309C64.1908 22.735 72.915 21.7183 74.856 21.4709C84.5336 20.2377 89.1528 19.5382 91.631 18.9306C92.869 18.6271 94.21 17.9975 94.5296 17.5699C94.8521 17.1383 94.8157 16.6056 94.4372 16.2161C94.0405 15.8081 93.9407 15.811 94.0619 16.2273C94.2634 16.9199 93.6132 17.6882 92.4561 18.1247C91.7147 18.4044 89.2793 18.8846 87.1001 19.1807C80.2244 20.115 66.6303 21.7306 57.4878 22.6999C46.0137 23.9164 36.7271 24.7522 29.6015 25.2099C26.4658 25.4113 22.2194 25.3618 20.324 25.1017C18.341 24.8295 18.2364 24.81 18.0506 24.6761C17.9082 24.5735 17.896 24.5044 17.9913 24.3419C18.0573 24.2292 18.2122 23.8619 18.3354 23.5255C18.5045 23.0643 18.6115 22.9141 18.7709 22.9141C19.0844 22.9141 19.1337 23.1809 18.9442 23.8522C18.8508 24.1825 18.7919 24.4699 18.8132 24.4909C18.9155 24.5918 21.0245 24.834 22.3467 24.8969L23.83 24.9673V24.047V23.1267L22.8861 23.1249C19.8704 23.119 16.5914 22.4331 14.2829 21.3254C12.5471 20.4924 11.8335 19.9686 9.47382 17.795C8.37142 16.7797 6.67236 15.2322 5.69811 14.3564C3.18339 12.0958 2.43936 11.3408 2.15823 10.7648C2.02263 10.487 1.87246 10.2597 1.82456 10.2597C1.77666 10.2597 1.58691 10.4289 1.40276 10.6356ZM44.3267 10.3844C43.4361 10.633 43.182 11.3862 43.8581 11.7738C44.8961 12.369 47.127 12.1286 47.4709 11.3846C47.7631 10.7526 46.921 10.2603 45.5673 10.2716C45.0927 10.2757 44.5344 10.3263 44.3267 10.3844ZM44.5435 11.0479C44.1709 11.1805 44.1696 11.1833 44.4136 11.3121C44.8555 11.5452 46.5922 11.4737 46.5922 11.2224C46.5922 10.9262 45.2152 10.809 44.5435 11.0479ZM92.3009 15.5153C91.7137 15.9536 89.4675 16.618 87.7451 16.8627C87.2718 16.9299 86.8439 17.0215 86.7944 17.0661C86.7449 17.1106 86.7877 17.4398 86.8895 17.7975C87.1029 18.5473 87.0658 18.5352 88.3946 18.2858C89.4302 18.0914 91.577 17.592 91.577 17.5455C91.577 17.5274 91.4562 17.3043 91.3086 17.0497C90.9973 16.5129 90.9688 16.2635 91.2083 16.1729C91.5063 16.0602 91.5542 16.0962 91.9007 16.6932C92.0874 17.0149 92.2729 17.2779 92.3131 17.2777C92.5132 17.2766 93.1066 16.8209 93.2159 16.5844C93.3241 16.3506 93.2993 16.2586 93.025 15.8748C92.6607 15.3653 92.5653 15.318 92.3009 15.5153ZM83.8319 17.436C82.865 17.5689 82.0563 17.6956 82.0347 17.7172C82.0133 17.7389 82.0221 18.0797 82.0545 18.4744C82.1009 19.0395 82.1504 19.1924 82.2874 19.1929C82.5128 19.194 86.3347 18.6477 86.3777 18.6083C86.3957 18.5918 86.3248 18.2618 86.2203 17.8751C86.0623 17.2906 85.993 17.1737 85.81 17.1829C85.6889 17.1891 84.7988 17.303 83.8319 17.436ZM78.6857 18.0821C77.6177 18.2192 76.7046 18.3336 76.6566 18.3364C76.6086 18.3393 76.5936 18.3802 76.6233 18.4275C76.6529 18.4748 76.6877 18.8337 76.7006 19.2251C76.7193 19.7956 76.758 19.9365 76.8958 19.936C76.9902 19.9357 77.9656 19.8163 79.0632 19.6707C80.1609 19.5251 81.1197 19.4057 81.1938 19.4054C81.3363 19.4049 81.39 18.3035 81.2632 17.978C81.1819 17.7692 81.0975 17.7726 78.6857 18.0821ZM72.8972 18.7491L70.6687 19.0212L70.7274 19.8245C70.7597 20.2663 70.8034 20.6473 70.8246 20.6713C70.872 20.725 75.5411 20.1691 75.77 20.0825C75.8973 20.0344 75.9348 19.8412 75.9348 19.234V18.4478L75.5303 18.4624C75.3078 18.4704 74.1229 18.5994 72.8972 18.7491ZM69.4082 19.1705C69.1709 19.1878 67.9457 19.3194 66.6857 19.4629C65.4257 19.6065 64.3673 19.7239 64.3338 19.7239C64.3002 19.7239 64.2822 20.1067 64.2936 20.5746C64.3141 21.4154 64.3177 21.4253 64.5959 21.4253C64.9664 21.4253 68.3418 21.0353 69.2816 20.8837L70.0178 20.7651L69.9426 19.9521C69.9013 19.5049 69.8612 19.139 69.8535 19.139C69.846 19.139 69.6456 19.1532 69.4082 19.1705ZM7.04626 19.7239C7.10764 19.9871 7.28413 20.9992 8.51156 28.1247C8.85914 30.1424 9.36185 33.0136 9.62873 34.505C9.89562 35.9964 10.29 38.2215 10.5051 39.4498C11.4586 44.8929 11.2917 44.4945 13.7199 47.1232C14.6837 48.1666 16.586 50.2405 17.9472 51.7319C21.2642 55.3661 22.384 56.4497 23.4553 57.0617C25.0406 57.9675 26.5249 58.4096 28.8145 58.658C30.2314 58.8116 34.7289 58.7097 36.1281 58.4922C36.6917 58.4046 38.4879 58.1617 40.1195 57.9525C41.7512 57.7432 44.2998 57.4058 45.7831 57.2027C47.2664 56.9995 49.7179 56.6652 51.2309 56.4596C66.5239 54.3825 78.3709 52.6115 80.0341 52.154C81.7425 51.6838 83.2003 50.7692 83.9492 49.6973C84.5273 48.8698 84.8125 47.9344 85.2087 45.5643C85.3994 44.4238 85.9117 41.4091 86.3473 38.8649C87.0428 34.8024 87.5137 31.9796 89.0031 22.9454C89.1979 21.7637 89.3332 20.773 89.3037 20.744C89.2742 20.715 88.2081 20.853 86.9345 21.0508C75.7162 22.7927 49.8935 25.6259 35.5887 26.6842C26.205 27.3785 22.6215 27.4243 19.203 26.8942C18.6457 26.8078 18.1664 26.7601 18.1377 26.7883C18.1091 26.8166 18.1895 27.691 18.3163 28.7317C18.4432 29.7723 18.6162 31.1979 18.7009 31.8997C19.7453 40.5537 20.729 47.3234 21.5561 51.547C21.7938 52.7612 21.9607 53.8259 21.9268 53.913C21.8269 54.1698 21.3622 54.1103 21.296 53.8321C20.3734 49.961 19.2623 42.5121 17.628 29.2412C17.4766 28.013 17.3304 26.9074 17.303 26.7843C17.2632 26.6053 17.0094 26.48 16.0377 26.1596C13.3286 25.2663 12.1511 24.4851 9.23121 21.6442C7.66084 20.1164 7.00289 19.5381 7.04626 19.7239ZM60.832 20.1022C59.5563 20.2396 57.2864 20.4818 55.7876 20.6402L53.0626 20.9283L53.1325 21.7882C53.171 22.2612 53.2118 22.6602 53.2235 22.6748C53.2444 22.7012 56.7912 22.3376 57.6766 22.2184L58.135 22.1566V21.3657V20.5746H58.4445C58.7184 20.5746 58.7618 20.6205 58.8209 20.9734C58.8577 21.1928 58.8883 21.5276 58.889 21.7177C58.8904 22.1374 58.7588 22.1299 61.1876 21.8479C63.8015 21.5445 63.5289 21.6806 63.5289 20.6789C63.5289 19.9373 63.5051 19.8316 63.3401 19.8413C63.2363 19.8475 62.1076 19.9649 60.832 20.1022ZM51.6085 21.0638C51.4898 21.0855 49.7665 21.2484 47.7788 21.426C45.7912 21.6034 43.4853 21.8162 42.6546 21.8987C41.824 21.9813 40.0872 22.1337 38.7951 22.2376C37.5031 22.3415 36.3944 22.4579 36.3314 22.4963C36.2539 22.5435 36.2462 22.8352 36.3073 23.4013L36.3978 24.2367L36.9371 24.2093C37.8777 24.1616 41.2422 23.87 41.495 23.8142C41.7198 23.7647 41.7377 23.703 41.7377 22.9766C41.7377 22.3777 41.7759 22.178 41.8995 22.1312C42.3197 21.9723 42.4889 22.2802 42.4913 23.2078L42.4928 23.7673L42.8974 23.7129C43.1199 23.683 44.0786 23.586 45.0279 23.4974C47.4883 23.2678 47.2804 23.3645 47.193 22.4902C47.1269 21.8282 47.1404 21.7472 47.3336 21.6452C47.732 21.435 47.8579 21.6016 47.9381 22.4454L48.0136 23.2392L48.3547 23.1863C48.5423 23.1572 49.5351 23.0524 50.5608 22.9534L52.4257 22.7736L52.3947 21.9133C52.3646 21.0793 52.3554 21.0527 52.0939 21.0389C51.9456 21.031 51.7271 21.0422 51.6085 21.0638ZM13.2098 21.8556C12.7973 22.5143 12.7727 22.8077 13.1301 22.8077C13.3687 22.8077 13.5665 22.5991 13.9065 21.9883C14.1128 21.6177 14.1318 21.5129 14.0172 21.3768C13.782 21.0975 13.6269 21.1895 13.2098 21.8556ZM32.9996 22.6659C31.7833 22.7475 30.7147 22.8487 30.6249 22.8908C30.4874 22.9552 30.476 23.1033 30.5533 23.8304L30.6451 24.6936L31.0942 24.6567C31.3412 24.6365 32.3443 24.5681 33.3232 24.5047C35.6913 24.3513 35.5889 24.3841 35.5875 23.7799C35.5858 23.0619 35.4705 22.4866 35.3318 22.5032C35.2655 22.511 34.2159 22.5843 32.9996 22.6659ZM27.7136 23.0252C27.0906 23.0668 26.1318 23.1065 25.583 23.1137L24.5852 23.1267V24.0475V24.9682L26.8947 24.8975C28.165 24.8586 29.3504 24.7979 29.5291 24.7627L29.8539 24.6986L29.8356 23.8074L29.8172 22.9161L29.3318 22.9329C29.0648 22.9421 28.3366 22.9837 27.7136 23.0252ZM68.0357 26.2372C67.8718 26.3631 67.6005 28.6704 66.995 35.0899C66.8902 36.201 66.941 36.4191 67.3046 36.4191C67.4087 36.4191 67.5427 36.3593 67.6024 36.2862C67.6619 36.2131 67.8874 34.4222 68.1033 32.3063C68.6168 27.275 68.6687 26.4745 68.4941 26.2671C68.3278 26.0696 68.2598 26.0652 68.0357 26.2372ZM56.8945 38.8738C50.7686 39.6507 45.9741 40.2225 40.9825 40.7716C38.8762 41.0033 36.4975 41.2658 35.6965 41.355C34.8956 41.4441 32.6625 41.687 30.7342 41.8947C25.9911 42.4055 22.629 42.7966 22.4007 42.8642C22.161 42.9352 22.149 43.4204 22.3847 43.5095C22.4797 43.5455 23.2443 43.4973 24.0838 43.4026C24.9232 43.3078 27.212 43.0593 29.17 42.8503C31.1279 42.6412 34.6474 42.2588 36.9911 42.0005C39.3347 41.7422 42.393 41.408 43.7873 41.2578C45.1817 41.1077 49.2109 40.6299 52.7412 40.1959C62.4543 39.0021 61.9838 39.0482 63.8525 39.1055C65.784 39.1647 67.0861 39.4434 68.337 40.0654C69.3861 40.587 81.5139 48.6096 81.7184 48.9173C81.8721 49.1484 81.8695 49.1977 81.6883 49.5008C81.2498 50.2344 79.8393 50.8828 77.9845 51.2034C73.0179 52.0617 60.6781 53.8657 47.4552 55.6667C45.7049 55.9051 43.4233 56.2173 42.3849 56.3605C34.1657 57.4943 30.8791 57.6907 28.1991 57.2084C27.1054 57.0115 26.9585 57.0118 26.9585 57.211C26.9585 57.4396 27.3093 57.546 28.7051 57.7405C30.1495 57.9417 33.4574 57.9697 35.2111 57.7957C37.2808 57.5903 45.5015 56.5392 47.7249 56.1956C48.0809 56.1406 49.076 56.0011 49.9364 55.8857C56.2478 55.0387 68.989 53.2233 72.8064 52.6271C73.726 52.4834 75.5707 52.1973 76.9057 51.9915C78.2407 51.7855 79.5271 51.5661 79.7645 51.5038C80.4311 51.3289 81.5139 50.8165 81.9709 50.4598C82.7001 49.8905 82.8986 48.9487 82.4361 48.2529C82.2798 48.0176 71.2852 40.6852 69.5239 39.6416C69.1097 39.3961 68.2589 39.0286 67.6332 38.8249C65.1463 38.0151 63.6105 38.0222 56.8945 38.8738ZM62.819 40.71C62.7342 40.9279 62.8317 41.1967 63.014 41.2473C63.0895 41.2683 63.6269 41.3391 64.2082 41.4048C65.6918 41.5723 65.3215 41.3588 70.4331 44.9941C75.0325 48.265 75.3415 48.4953 75.3415 48.6512C75.3415 48.9912 74.5531 49.1867 71.4965 49.6045C68.6849 49.9888 59.9321 51.1676 54.1975 51.9343C52.8922 52.1088 50.2222 52.4683 48.2643 52.7332C43.4407 53.3858 36.6232 54.2502 34.7796 54.4429C32.9745 54.6316 32.2134 54.641 31.101 54.4885C29.4115 54.2569 28.9752 53.9712 25.8838 51.0715C23.4622 48.8 23.0625 48.5197 22.9875 49.0394C22.9615 49.2194 23.4435 49.7458 25.1451 51.3956C27.7087 53.881 28.1921 54.2906 29.0621 54.7145C29.9815 55.1624 30.9952 55.3434 32.5954 55.3456C34.2068 55.3477 35.8961 55.1664 42.9487 54.2343C48.2826 53.5294 49.401 53.3801 57.7035 52.2642C60.3438 51.9094 64.64 51.3323 67.2507 50.9817C74.6708 49.9853 74.9749 49.9379 75.4771 49.6983C76.3383 49.2873 76.485 48.4266 75.7951 47.832C75.6033 47.6668 73.8584 46.407 71.9173 45.0326C65.6375 40.5857 65.8785 40.7196 63.9363 40.5994C63.0227 40.5429 62.8784 40.5572 62.819 40.71ZM17.3974 43.9122C16.2312 44.3352 15.7693 44.5564 15.4482 44.8457C15.156 45.1088 15.0488 45.545 15.1879 45.9053C15.2455 46.0547 16.1156 47.056 17.1215 48.1303C19.366 50.5277 19.5635 50.7137 19.7782 50.6325C20.0564 50.5273 19.9691 50.2079 19.5782 49.9003C19.1139 49.5352 16.5841 46.8544 16.1628 46.2809C15.9892 46.0446 15.8471 45.7621 15.8471 45.653C15.8471 45.3651 16.3748 45.0904 17.8776 44.5962C19.2059 44.1594 19.4406 43.9995 19.1901 43.7019C18.9868 43.4603 18.4787 43.5199 17.3974 43.9122ZM46.547 46.1739C45.8741 46.4122 45.5365 46.8256 45.6819 47.2332C46.0236 48.1914 48.7456 48.2691 49.4399 47.3405C49.6437 47.068 49.6489 47.0197 49.5015 46.761C49.241 46.3034 48.7104 46.0671 47.8476 46.0243C47.3017 45.9972 46.9232 46.0408 46.547 46.1739ZM47.1393 46.753C46.2809 46.9016 46.2892 47.1786 47.1564 47.323C47.5952 47.396 48.2793 47.3145 48.5353 47.1586C48.9546 46.9031 47.9533 46.6122 47.1393 46.753Z" fill="#149B77"/>
</svg>
