
<svg width="30" height="30" viewBox="0 0 30 30" fill="none" xmlns="http://www.w3.org/2000/svg">
<g clip-path="url(#clip0_56_261)">
<path d="M11.0673 27.047C11.7463 27.047 12.2967 26.4966 12.2967 25.8176C12.2967 25.1386 11.7463 24.5882 11.0673 24.5882C10.3883 24.5882 9.83789 25.1386 9.83789 25.8176C9.83789 26.4966 10.3883 27.047 11.0673 27.047Z" stroke="#149B77" stroke-width="2.45882" stroke-linecap="round" stroke-linejoin="round"/>
<path d="M24.5907 27.047C25.2697 27.047 25.8201 26.4966 25.8201 25.8176C25.8201 25.1386 25.2697 24.5882 24.5907 24.5882C23.9118 24.5882 23.3613 25.1386 23.3613 25.8176C23.3613 26.4966 23.9118 27.047 24.5907 27.047Z" stroke="#149B77" stroke-width="2.45882" stroke-linecap="round" stroke-linejoin="round"/>
<path d="M1.22949 1.2294H6.14713L9.44194 17.6912C9.55436 18.2572 9.86228 18.7656 10.3118 19.1275C10.7613 19.4894 11.3238 19.6816 11.9008 19.6705H23.8506C24.4276 19.6816 24.99 19.4894 25.4396 19.1275C25.8891 18.7656 26.197 18.2572 26.3094 17.6912L28.2765 7.37645H7.37653" stroke="#149B77" stroke-width="2.45882" stroke-linecap="round" stroke-linejoin="round"/>
</g>
<defs>
<clipPath id="clip0_56_261">
<rect width="29.5058" height="29.5058" fill="white"/>
</clipPath>
</defs>
</svg>





















