<svg width="58" height="58" viewBox="0 0 58 58" fill="none" xmlns="http://www.w3.org/2000/svg">
<path fill-rule="evenodd" clip-rule="evenodd" d="M18.7386 0.0220406C10.7889 0.402501 3.79449 5.65629 1.07608 13.2889C-0.37128 17.3528 -0.357909 22.2188 1.11212 26.3456C3.6627 33.5062 9.99402 38.5537 17.4776 39.3927L18.5963 39.5182L18.6393 40.0846C18.7503 41.5457 19.373 44.3629 19.7705 45.2022C20.149 46.0015 20.9771 46.1515 21.5947 45.5327C22.0639 45.0625 22.0638 44.86 21.5938 43.2923C21.2649 42.1956 20.9491 40.5354 20.9486 39.9005L20.9482 39.4904L21.8168 39.4115C27.6097 38.8856 33.0984 35.4464 36.4183 30.2626C37.9526 27.8669 39.0201 24.7293 39.3627 21.6087L39.434 20.9591L39.9644 21.0178C40.2562 21.0501 41.0611 21.1816 41.7532 21.3099C42.9264 21.5276 43.0353 21.5308 43.366 21.3595C43.8947 21.0856 44.1224 20.5729 43.9587 20.0255C43.887 19.7856 43.7134 19.5139 43.573 19.4217C43.2608 19.2166 41.4865 18.8448 40.3032 18.7364L39.4316 18.6564L39.3645 18.0163C38.8431 13.037 36.7303 8.69907 33.219 5.39936C29.304 1.72009 24.047 -0.232054 18.7386 0.0220406ZM17.1522 2.50361C10.6274 3.54689 5.31211 7.99117 3.23472 14.1404C1.46849 19.3688 2.21557 24.8994 5.32128 29.5867C6.27482 31.0259 8.51414 33.27 9.94949 34.2247C12.3474 35.8198 15.0771 36.8164 17.9106 37.1313L18.5556 37.2031L18.6137 36.8267C18.6457 36.6197 18.7296 36.017 18.8002 35.4874C19.7532 28.339 25.0627 22.0015 32.0649 19.654C33.4324 19.1956 35.0008 18.8524 36.2521 18.7377L37.1085 18.6593L37.0151 17.8475C36.6864 14.9881 35.6887 12.3045 34.0541 9.8828C33.245 8.68408 30.9852 6.36532 29.8821 5.6019C27.4383 3.91044 25.0116 2.93516 22.1671 2.50111C20.8518 2.30038 18.4155 2.30163 17.1522 2.50361ZM18.2853 5.17149C17.3363 5.27015 15.9966 5.54627 15.5024 5.74519C14.8061 6.0254 14.6188 7.02134 15.1605 7.56404C15.5476 7.95177 15.9102 7.98379 17.0138 7.72731C17.4129 7.63455 18.2954 7.51034 18.975 7.45119C20.1525 7.34878 20.225 7.32732 20.5226 6.99352C20.9435 6.52178 20.9437 5.97567 20.5233 5.51244C20.1525 5.10382 19.6594 5.02866 18.2853 5.17149ZM10.7724 8.20439C10.129 8.55737 8.39629 10.3925 7.63527 11.5269C6.04729 13.8942 5.08616 16.857 5.08468 19.3897C5.08423 20.0674 5.12038 20.1947 5.40208 20.5106C5.65907 20.7989 5.81273 20.8695 6.20593 20.8798C6.61567 20.8905 6.7419 20.8368 7.00842 20.5379C7.28151 20.2316 7.33522 20.0536 7.40162 19.2339C7.56694 17.1917 7.96683 15.6677 8.72921 14.1741C9.38042 12.8981 10.0765 11.9786 11.3321 10.7353C12.337 9.74042 12.4497 9.58749 12.4497 9.21838C12.4497 8.92921 12.3575 8.70645 12.138 8.46507C11.7394 8.0267 11.2623 7.93565 10.7724 8.20439ZM36.0757 21.0811C28.2177 22.0694 21.8023 28.6016 20.9993 36.4319L20.9197 37.2082L21.5855 37.1289C23.7031 36.8768 25.5467 36.3249 27.4638 35.3695C32.4838 32.8676 36.0136 28.0864 36.8653 22.635C36.966 21.9907 37.0647 21.3486 37.0845 21.2081C37.1044 21.0675 37.0641 20.9591 36.9948 20.9669C36.9255 20.9749 36.5119 21.0262 36.0757 21.0811ZM47.2846 21.1893C46.8236 21.3219 46.5624 21.6274 46.4813 22.1285C46.3863 22.7146 46.6081 22.9829 47.8872 23.8292C48.4956 24.2318 49.3249 24.8618 49.73 25.2294C51.0005 26.382 51.1951 26.5159 51.5997 26.5159C52.0683 26.5159 52.6257 26.0745 52.7091 25.6372C52.8073 25.1228 52.5334 24.6834 51.5357 23.7547C50.6082 22.8915 48.3079 21.2587 47.8603 21.1461C47.7357 21.1146 47.4765 21.1342 47.2846 21.1893ZM54.1932 28.4437C53.8649 28.5767 53.4694 29.1045 53.4694 29.4098C53.4694 29.5483 53.693 30.1418 53.9662 30.7286C54.4758 31.8229 54.9042 32.9904 55.2263 34.1629C55.4641 35.0285 55.8028 35.3717 56.4191 35.3717C56.789 35.3717 56.9583 35.2995 57.2327 35.0247C57.5529 34.7038 57.5744 34.6331 57.5172 34.088C57.4267 33.2259 56.8176 31.41 56.1325 29.9597C55.6604 28.9601 55.4602 28.6537 55.187 28.5121C54.8054 28.3143 54.5554 28.2972 54.1932 28.4437ZM56.0669 38.542C55.8847 38.7246 55.7357 38.9565 55.7357 39.0574C55.7357 39.7404 55.4394 41.6413 55.1607 42.7457C54.7307 44.4499 54.7331 44.7277 55.1811 45.1471C55.9596 45.8758 56.8001 45.4362 57.2094 44.0863C57.5647 42.9142 57.8874 41.157 57.9654 39.97C58.0323 38.9497 58.0319 38.9475 57.6884 38.5791C57.2154 38.0719 56.5513 38.0567 56.0669 38.542ZM53.1676 47.8606C53.0328 47.9151 52.6294 48.359 52.2712 48.8469C51.9129 49.3349 51.1138 50.2347 50.4955 50.8465C49.1968 52.1313 49.0296 52.3887 49.1716 52.885C49.3391 53.4701 49.702 53.7647 50.2555 53.7647C50.6851 53.7647 50.8236 53.6911 51.4538 53.1285C52.5855 52.118 54.2983 50.1316 54.7088 49.3532C55.1665 48.4855 54.1226 47.4747 53.1676 47.8606ZM22.8052 48.1948C22.4293 48.3537 22.0814 48.8768 22.0814 49.2828C22.0814 49.7631 22.798 50.7501 24.1666 52.1546C25.4438 53.4656 26.2574 54.1053 26.6474 54.1053C27.5934 54.1053 28.1645 53.1405 27.6613 52.3922C27.5527 52.2307 27.0734 51.7453 26.5964 51.3136C26.1192 50.8821 25.4308 50.1746 25.0666 49.7418C24.7023 49.3089 24.2513 48.7851 24.0644 48.5777C23.7029 48.177 23.2054 48.0256 22.8052 48.1948ZM44.5201 54.6887C43.8669 54.9429 42.6949 55.2949 41.9155 55.4709C40.7455 55.735 40.4536 55.8428 40.2417 56.0897C39.6485 56.7808 40.1436 57.9669 41.0244 57.9645C41.9447 57.962 44.8942 57.1275 46.2653 56.4817C47.1391 56.0701 47.3641 55.1589 46.7376 54.5692C46.2959 54.1535 45.8301 54.1786 44.5201 54.6887ZM30.5009 54.5818C29.9082 54.8687 29.7812 55.8944 30.2809 56.3577C31.0269 57.0494 35.5631 58.2471 36.3301 57.9549C37.0454 57.6825 37.3208 57.032 36.991 56.3931C36.7474 55.9211 36.5503 55.8331 35.1358 55.5651C34.4685 55.4387 33.3307 55.1352 32.6072 54.8906C31.2371 54.4274 30.9168 54.3805 30.5009 54.5818Z" fill="#149B77"/>
</svg>
