<svg width="55" height="35" viewBox="0 0 55 35" fill="none" xmlns="http://www.w3.org/2000/svg">
<mask id="path-1-inside-1_249_579" fill="white">
<path fill-rule="evenodd" clip-rule="evenodd" d="M8.5382 0.76752C8.43103 1.18932 8.34124 2.25569 8.33898 3.13698L8.33448 4.7396L4.55296 4.83503C1.01636 4.92469 0.771444 4.97461 0.771444 5.61002C0.771444 6.26445 1.01507 6.29264 7.48903 6.38128C14.2822 6.47399 15.2699 6.32218 14.8786 5.24562C14.746 4.88156 14.0599 4.761 12.1218 4.761H9.54134L9.74249 3.69971C9.8532 3.11592 9.94363 2.3518 9.94363 2.00166C9.94363 1.38867 10.4766 1.36489 24.269 1.36489H38.5943L38.4292 2.63843C38.3385 3.33905 37.9034 8.49671 37.4625 14.1003C37.0212 19.7038 36.5781 24.9379 36.4773 25.7319L36.2942 27.1753H29.1422H21.9901L21.4053 26.1303C19.6523 22.9987 14.642 23.0089 12.5234 26.1486C11.8769 27.107 11.6947 27.1753 9.78111 27.1753H7.73137L7.86267 26.0715C7.93509 25.4646 8.0812 24.0889 8.1874 23.015L8.38082 21.0623H10.7939C13.1121 21.0623 13.2028 21.0324 13.104 20.2982C13.0017 19.5398 12.9585 19.534 7.5299 19.534C2.10125 19.534 2.05813 19.5398 1.95578 20.2982C1.85698 21.0327 1.94709 21.0623 4.28906 21.0623H6.72532V22.0312C6.72532 24.5677 6.29407 27.1753 5.87504 27.1753C5.12518 27.1753 4.15067 28.4892 4.15067 29.4999C4.15067 31.1996 4.95042 31.5902 8.43199 31.5902C11.5328 31.5902 11.5367 31.5912 12.0194 32.5761C13.5494 35.6985 18.4828 35.8326 20.7652 32.8138L21.6905 31.5902L30.5408 31.5922L39.3912 31.5946L39.9357 32.6039C41.6273 35.7416 46.4998 35.8092 48.8299 32.7276C49.6341 31.6636 49.815 31.5902 51.6295 31.5902C54.0747 31.5902 55 30.9857 55 29.3882C55 28.5588 54.7686 28.0515 54.1603 27.5465L53.3207 26.8496L53.6943 22.3307C54.1172 17.2193 53.9051 15.529 52.5003 12.805C50.6321 9.18272 47.3829 7.28362 42.4187 6.91175L39.545 6.69643L39.7607 3.94559C39.8791 2.43297 39.9895 0.965852 40.0056 0.685673C40.031 0.240444 38.0595 0.165051 24.3839 0.0882994L8.7329 0L8.5382 0.76752ZM16.4842 5.30471C16.1897 6.114 16.9596 6.44818 19.1319 6.45395C21.1218 6.45905 21.9335 6.06136 21.6309 5.22898C21.367 4.50323 16.751 4.57115 16.4842 5.30471ZM39.4073 8.92122C39.3008 9.28528 37.9172 26.2104 37.9362 26.9206C37.9397 27.0605 38.3414 27.1753 38.828 27.1753C39.4462 27.1753 39.9724 26.8323 40.573 26.0379C42.8464 23.0313 47.4714 23.0232 49.2283 26.0226C49.7348 26.8876 50.1275 27.1753 50.8014 27.1753C51.8644 27.1753 51.9609 26.7688 52.2995 20.868C52.4794 17.7297 52.4196 16.8036 51.9358 15.2679C51.1351 12.7232 48.4263 9.883 46.0322 9.07744C43.9625 8.38124 39.5959 8.27834 39.4073 8.92122ZM2.92385 10.4495C3.01493 10.9521 3.46517 11.0591 5.84383 11.1419C8.48992 11.2343 8.65631 11.199 8.65631 10.5476C8.65631 9.90167 8.46031 9.85515 5.73633 9.85515C3.12886 9.85515 2.82762 9.91865 2.92385 10.4495ZM10.4264 10.1948C9.91499 11.0679 10.8798 11.2136 17.1694 11.2136C22.4867 11.2136 23.746 11.1243 23.8866 10.7375C23.9819 10.4756 23.9732 10.17 23.8673 10.0582C23.5275 9.69961 10.6398 9.83036 10.4264 10.1948ZM40.8246 10.2797C40.6373 11.362 40.0056 19.948 40.1002 20.1284C40.1736 20.2683 42.6147 20.3831 45.525 20.3831H50.8162V18.8093C50.8162 13.9352 47.2976 10.2063 42.69 10.1982C41.6723 10.1961 40.8327 10.2328 40.8246 10.2797ZM41.9874 13.9916C41.8725 15.3589 41.6984 17.0556 41.6009 17.762L41.4232 19.046L45.3956 18.9506L49.368 18.8548L49.2766 17.6767C49.06 14.8766 46.5078 12.2372 43.5293 11.7318L42.1966 11.506L41.9874 13.9916ZM0.024796 15.3738C0.116196 16.0524 0.338259 16.1495 2.00534 16.2405C3.96176 16.3478 4.88606 15.9362 4.57999 15.0943C4.45062 14.7387 3.80663 14.6097 2.16272 14.6097C0.0231874 14.6097 -0.0733625 14.6443 0.024796 15.3738ZM6.23775 14.9578C6.12124 15.1561 6.20363 15.5443 6.42023 15.8197C6.74978 16.2385 7.95665 16.3057 13.7696 16.2293C20.4817 16.141 20.725 16.1142 20.725 15.4587C20.725 14.8026 20.4817 14.7764 13.5871 14.6881C8.80467 14.627 6.37935 14.716 6.23775 14.9578ZM15.1264 19.6746C14.8796 19.8397 14.7663 20.2197 14.8751 20.5186C15.0405 20.9736 15.679 21.0623 18.794 21.0623C21.909 21.0623 22.5475 20.9736 22.7129 20.5186C23.038 19.6247 22.1816 19.3748 18.794 19.3748C17.0239 19.3748 15.3736 19.5096 15.1264 19.6746ZM15.5757 25.6171C14.0418 26.3364 13.1056 27.6426 12.9273 29.3118C12.7355 31.1066 13.1655 32.0745 14.5503 32.9656C15.8669 33.8126 16.8064 33.8004 18.2964 32.9167C19.7907 32.0303 20.5641 30.6885 20.5641 28.9813C20.5641 27.4459 19.932 26.3558 18.6295 25.645C17.5015 25.0296 16.8411 25.0235 15.5757 25.6171ZM43.5589 25.6154C40.9453 26.8166 39.9885 30.1312 41.6527 32.2185C43.7916 34.9007 48.0826 33.1388 48.4803 29.4153C48.6821 27.5257 48.0369 26.3154 46.4567 25.6185C45.1356 25.0361 44.8198 25.0357 43.5589 25.6154ZM15.1055 27.9187C14.1709 28.9772 14.2607 30.3656 15.3205 31.2451C16.8205 32.4905 18.9549 31.3059 18.9549 29.2279C18.9549 27.2884 16.4224 26.4271 15.1055 27.9187ZM42.9616 27.9122C41.4783 30.1469 43.3951 32.66 45.6463 31.4316C46.8416 30.7795 47.2365 29.436 46.5912 28.2175C45.9334 26.9752 43.7076 26.7881 42.9616 27.9122ZM16.2731 28.7602C15.8949 29.1589 16.0436 30.2318 16.4768 30.2318C17.095 30.2318 17.6422 29.5379 17.4471 29.0017C17.2675 28.5082 16.6351 28.3782 16.2731 28.7602ZM44.0552 29.0462C43.7514 29.4327 43.732 29.6843 43.9853 29.9516C44.4735 30.4668 45.4149 30.0154 45.2884 29.327C45.1439 28.5405 44.5579 28.407 44.0552 29.0462ZM5.65523 29.0968C5.53873 29.2197 5.60503 29.5254 5.80199 29.776C6.04626 30.0867 6.96734 30.2318 8.69557 30.2318C11.0163 30.2318 11.231 30.1744 11.231 29.5525C11.231 28.9277 11.0163 28.8733 8.54914 28.8733C7.07386 28.8733 5.77174 28.9738 5.65523 29.0968ZM22.1732 29.5583C22.1732 30.2297 22.3364 30.2413 30.6171 30.1526C38.3633 30.0694 39.0697 30.0127 39.1691 29.4676C39.2702 28.9137 38.697 28.8733 30.7252 28.8733C22.3644 28.8733 22.1732 28.8886 22.1732 29.5583ZM50.1725 29.5525C50.1725 30.1265 50.3872 30.2318 51.5564 30.2318C52.8408 30.2318 53.7127 29.7923 53.7127 29.145C53.7127 28.9956 52.9161 28.8733 51.9426 28.8733C50.3872 28.8733 50.1725 28.9555 50.1725 29.5525Z"/>
</mask>
<path fill-rule="evenodd" clip-rule="evenodd" d="M8.5382 0.76752C8.43103 1.18932 8.34124 2.25569 8.33898 3.13698L8.33448 4.7396L4.55296 4.83503C1.01636 4.92469 0.771444 4.97461 0.771444 5.61002C0.771444 6.26445 1.01507 6.29264 7.48903 6.38128C14.2822 6.47399 15.2699 6.32218 14.8786 5.24562C14.746 4.88156 14.0599 4.761 12.1218 4.761H9.54134L9.74249 3.69971C9.8532 3.11592 9.94363 2.3518 9.94363 2.00166C9.94363 1.38867 10.4766 1.36489 24.269 1.36489H38.5943L38.4292 2.63843C38.3385 3.33905 37.9034 8.49671 37.4625 14.1003C37.0212 19.7038 36.5781 24.9379 36.4773 25.7319L36.2942 27.1753H29.1422H21.9901L21.4053 26.1303C19.6523 22.9987 14.642 23.0089 12.5234 26.1486C11.8769 27.107 11.6947 27.1753 9.78111 27.1753H7.73137L7.86267 26.0715C7.93509 25.4646 8.0812 24.0889 8.1874 23.015L8.38082 21.0623H10.7939C13.1121 21.0623 13.2028 21.0324 13.104 20.2982C13.0017 19.5398 12.9585 19.534 7.5299 19.534C2.10125 19.534 2.05813 19.5398 1.95578 20.2982C1.85698 21.0327 1.94709 21.0623 4.28906 21.0623H6.72532V22.0312C6.72532 24.5677 6.29407 27.1753 5.87504 27.1753C5.12518 27.1753 4.15067 28.4892 4.15067 29.4999C4.15067 31.1996 4.95042 31.5902 8.43199 31.5902C11.5328 31.5902 11.5367 31.5912 12.0194 32.5761C13.5494 35.6985 18.4828 35.8326 20.7652 32.8138L21.6905 31.5902L30.5408 31.5922L39.3912 31.5946L39.9357 32.6039C41.6273 35.7416 46.4998 35.8092 48.8299 32.7276C49.6341 31.6636 49.815 31.5902 51.6295 31.5902C54.0747 31.5902 55 30.9857 55 29.3882C55 28.5588 54.7686 28.0515 54.1603 27.5465L53.3207 26.8496L53.6943 22.3307C54.1172 17.2193 53.9051 15.529 52.5003 12.805C50.6321 9.18272 47.3829 7.28362 42.4187 6.91175L39.545 6.69643L39.7607 3.94559C39.8791 2.43297 39.9895 0.965852 40.0056 0.685673C40.031 0.240444 38.0595 0.165051 24.3839 0.0882994L8.7329 0L8.5382 0.76752ZM16.4842 5.30471C16.1897 6.114 16.9596 6.44818 19.1319 6.45395C21.1218 6.45905 21.9335 6.06136 21.6309 5.22898C21.367 4.50323 16.751 4.57115 16.4842 5.30471ZM39.4073 8.92122C39.3008 9.28528 37.9172 26.2104 37.9362 26.9206C37.9397 27.0605 38.3414 27.1753 38.828 27.1753C39.4462 27.1753 39.9724 26.8323 40.573 26.0379C42.8464 23.0313 47.4714 23.0232 49.2283 26.0226C49.7348 26.8876 50.1275 27.1753 50.8014 27.1753C51.8644 27.1753 51.9609 26.7688 52.2995 20.868C52.4794 17.7297 52.4196 16.8036 51.9358 15.2679C51.1351 12.7232 48.4263 9.883 46.0322 9.07744C43.9625 8.38124 39.5959 8.27834 39.4073 8.92122ZM2.92385 10.4495C3.01493 10.9521 3.46517 11.0591 5.84383 11.1419C8.48992 11.2343 8.65631 11.199 8.65631 10.5476C8.65631 9.90167 8.46031 9.85515 5.73633 9.85515C3.12886 9.85515 2.82762 9.91865 2.92385 10.4495ZM10.4264 10.1948C9.91499 11.0679 10.8798 11.2136 17.1694 11.2136C22.4867 11.2136 23.746 11.1243 23.8866 10.7375C23.9819 10.4756 23.9732 10.17 23.8673 10.0582C23.5275 9.69961 10.6398 9.83036 10.4264 10.1948ZM40.8246 10.2797C40.6373 11.362 40.0056 19.948 40.1002 20.1284C40.1736 20.2683 42.6147 20.3831 45.525 20.3831H50.8162V18.8093C50.8162 13.9352 47.2976 10.2063 42.69 10.1982C41.6723 10.1961 40.8327 10.2328 40.8246 10.2797ZM41.9874 13.9916C41.8725 15.3589 41.6984 17.0556 41.6009 17.762L41.4232 19.046L45.3956 18.9506L49.368 18.8548L49.2766 17.6767C49.06 14.8766 46.5078 12.2372 43.5293 11.7318L42.1966 11.506L41.9874 13.9916ZM0.024796 15.3738C0.116196 16.0524 0.338259 16.1495 2.00534 16.2405C3.96176 16.3478 4.88606 15.9362 4.57999 15.0943C4.45062 14.7387 3.80663 14.6097 2.16272 14.6097C0.0231874 14.6097 -0.0733625 14.6443 0.024796 15.3738ZM6.23775 14.9578C6.12124 15.1561 6.20363 15.5443 6.42023 15.8197C6.74978 16.2385 7.95665 16.3057 13.7696 16.2293C20.4817 16.141 20.725 16.1142 20.725 15.4587C20.725 14.8026 20.4817 14.7764 13.5871 14.6881C8.80467 14.627 6.37935 14.716 6.23775 14.9578ZM15.1264 19.6746C14.8796 19.8397 14.7663 20.2197 14.8751 20.5186C15.0405 20.9736 15.679 21.0623 18.794 21.0623C21.909 21.0623 22.5475 20.9736 22.7129 20.5186C23.038 19.6247 22.1816 19.3748 18.794 19.3748C17.0239 19.3748 15.3736 19.5096 15.1264 19.6746ZM15.5757 25.6171C14.0418 26.3364 13.1056 27.6426 12.9273 29.3118C12.7355 31.1066 13.1655 32.0745 14.5503 32.9656C15.8669 33.8126 16.8064 33.8004 18.2964 32.9167C19.7907 32.0303 20.5641 30.6885 20.5641 28.9813C20.5641 27.4459 19.932 26.3558 18.6295 25.645C17.5015 25.0296 16.8411 25.0235 15.5757 25.6171ZM43.5589 25.6154C40.9453 26.8166 39.9885 30.1312 41.6527 32.2185C43.7916 34.9007 48.0826 33.1388 48.4803 29.4153C48.6821 27.5257 48.0369 26.3154 46.4567 25.6185C45.1356 25.0361 44.8198 25.0357 43.5589 25.6154ZM15.1055 27.9187C14.1709 28.9772 14.2607 30.3656 15.3205 31.2451C16.8205 32.4905 18.9549 31.3059 18.9549 29.2279C18.9549 27.2884 16.4224 26.4271 15.1055 27.9187ZM42.9616 27.9122C41.4783 30.1469 43.3951 32.66 45.6463 31.4316C46.8416 30.7795 47.2365 29.436 46.5912 28.2175C45.9334 26.9752 43.7076 26.7881 42.9616 27.9122ZM16.2731 28.7602C15.8949 29.1589 16.0436 30.2318 16.4768 30.2318C17.095 30.2318 17.6422 29.5379 17.4471 29.0017C17.2675 28.5082 16.6351 28.3782 16.2731 28.7602ZM44.0552 29.0462C43.7514 29.4327 43.732 29.6843 43.9853 29.9516C44.4735 30.4668 45.4149 30.0154 45.2884 29.327C45.1439 28.5405 44.5579 28.407 44.0552 29.0462ZM5.65523 29.0968C5.53873 29.2197 5.60503 29.5254 5.80199 29.776C6.04626 30.0867 6.96734 30.2318 8.69557 30.2318C11.0163 30.2318 11.231 30.1744 11.231 29.5525C11.231 28.9277 11.0163 28.8733 8.54914 28.8733C7.07386 28.8733 5.77174 28.9738 5.65523 29.0968ZM22.1732 29.5583C22.1732 30.2297 22.3364 30.2413 30.6171 30.1526C38.3633 30.0694 39.0697 30.0127 39.1691 29.4676C39.2702 28.9137 38.697 28.8733 30.7252 28.8733C22.3644 28.8733 22.1732 28.8886 22.1732 29.5583ZM50.1725 29.5525C50.1725 30.1265 50.3872 30.2318 51.5564 30.2318C52.8408 30.2318 53.7127 29.7923 53.7127 29.145C53.7127 28.9956 52.9161 28.8733 51.9426 28.8733C50.3872 28.8733 50.1725 28.9555 50.1725 29.5525Z" fill="black" stroke="white" stroke-width="0.4" mask="url(#path-1-inside-1_249_579)"/>
</svg>
