<svg width="47" height="47" viewBox="0 0 47 47" fill="none" xmlns="http://www.w3.org/2000/svg">
<path fill-rule="evenodd" clip-rule="evenodd" d="M18.8748 1.30751C18.4529 1.51759 18.0183 1.86244 17.3761 2.49699C16.3687 3.49215 16.1496 3.59742 14.8423 3.71378C12.8439 3.8917 11.8488 4.70821 11.1766 6.72189C10.7146 8.10579 10.5688 8.28985 9.35668 9.02033C8.64709 9.44791 7.86787 10.2211 7.61043 10.7529C7.3582 11.2739 7.23204 12.3232 7.33557 13.0388C7.38065 13.3504 7.41839 13.8985 7.4194 14.2567C7.42142 14.9572 7.30827 15.2465 6.56377 16.4456C5.61928 17.9668 5.66802 19.3424 6.72411 20.9749C6.95627 21.3338 7.20804 21.7756 7.28371 21.9566C7.43186 22.3112 7.45339 23.2201 7.33539 24.1415C7.24652 24.8358 7.36379 25.8176 7.59925 26.3499C7.83471 26.8821 8.70362 27.7469 9.39506 28.1372C10.1908 28.5863 10.7499 29.1712 10.9795 29.7948L11.1718 30.3173L8.54549 34.8709C6.06409 39.1733 5.91704 39.4538 5.88076 39.9549C5.83174 40.633 6.09716 41.2225 6.62296 41.6034C7.2817 42.0806 7.53869 42.1012 9.38929 41.8256C10.2973 41.6903 11.1465 41.5588 11.2765 41.5331C11.489 41.4913 11.5295 41.5312 11.6791 41.9301C12.329 43.6634 12.8874 44.9826 13.0769 45.2321C13.7515 46.1204 15.3205 46.1446 16.0496 45.278C16.172 45.1326 17.4444 42.9813 18.8771 40.4974C21.4759 35.9919 21.483 35.9807 21.8957 35.8028C22.1232 35.7047 22.567 35.5565 22.8819 35.4734C23.418 35.3318 23.4931 35.3324 24.0598 35.481C25.4372 35.8422 25.1062 35.4243 28.0306 40.4947C29.464 42.9801 30.737 45.1326 30.8594 45.278C31.5553 46.1051 32.9114 46.1415 33.6986 45.3544C34.0285 45.0244 34.0465 44.9864 34.8284 42.9699C35.1311 42.1892 35.3899 41.5394 35.4036 41.5257C35.4171 41.5121 36.2696 41.6298 37.2977 41.7873C39.3101 42.0955 39.5493 42.0876 40.1941 41.6912C40.8874 41.265 41.2467 40.1445 40.9308 39.3931C40.8575 39.2184 39.6585 37.1054 38.2668 34.6976L35.7362 30.32L35.9281 29.807C36.1782 29.1384 36.6173 28.6642 37.4183 28.1972C38.2132 27.7339 39.0659 26.901 39.3097 26.3499C39.5452 25.8176 39.6625 24.8358 39.5736 24.1415C39.4556 23.2201 39.4771 22.3112 39.6253 21.9566C39.701 21.7756 39.9527 21.3338 40.1849 20.9749C41.241 19.3424 41.2897 17.9668 40.3452 16.4456C39.584 15.2196 39.4871 14.9648 39.4955 14.2109C39.4998 13.8275 39.535 13.2664 39.574 12.9641C39.6628 12.2737 39.5329 11.2501 39.2923 10.7458C39.0429 10.2227 38.2611 9.44746 37.5523 9.02033C36.3402 8.28985 36.1944 8.10579 35.7324 6.72189C35.0585 4.70326 34.1705 3.97911 32.0456 3.71552C31.464 3.64341 30.8478 3.52568 30.6762 3.45404C30.5046 3.3823 29.9742 2.93658 29.4976 2.46346C27.906 0.883769 27.0104 0.670664 24.9204 1.3743C24.3218 1.57586 23.6621 1.74077 23.4545 1.74077C23.2469 1.74077 22.5872 1.57586 21.9886 1.3743C21.0829 1.0693 20.7801 1.0081 20.1846 1.00974C19.5643 1.01139 19.39 1.05097 18.8748 1.30751ZM19.6834 3.13585C19.5151 3.23727 19.0015 3.6829 18.542 4.12624C17.3775 5.24958 16.8182 5.51253 15.2365 5.68028C14.0651 5.80452 13.7298 5.95532 13.4424 6.48735C13.3147 6.72373 13.1002 7.24705 12.9659 7.65017C12.8316 8.05329 12.5996 8.59668 12.4505 8.85771C12.1299 9.41869 11.3357 10.1705 10.662 10.5507C10.3971 10.7002 10.0095 10.9746 9.80066 11.1604C9.30601 11.6004 9.20212 12.0798 9.35512 13.217C9.56593 14.7838 9.3739 15.6771 8.53871 17.0152C8.05221 17.7945 7.87933 18.2126 7.87933 18.6097C7.87933 18.91 8.18698 19.5863 8.70802 20.431C8.91004 20.7585 9.16254 21.3109 9.26909 21.6584C9.44188 22.2218 9.45471 22.4006 9.38801 23.3075C9.34678 23.867 9.31792 24.588 9.32388 24.9098C9.33716 25.6308 9.46598 25.7879 10.7286 26.6224C11.2122 26.9421 11.7573 27.369 11.9398 27.571C12.3427 28.0169 12.768 28.8399 13.0636 29.7454C13.389 30.7421 13.6537 31.0937 14.2153 31.275C14.471 31.3577 14.8215 31.4252 14.9942 31.4252C15.532 31.4252 16.6981 31.6989 17.2118 31.9457C17.5122 32.09 18.0364 32.5034 18.5612 33.0098C19.9489 34.3487 19.9473 34.3481 21.3837 33.8579C23.1768 33.2459 23.7322 33.2459 25.5253 33.8579C26.0343 34.0316 26.5774 34.1738 26.7322 34.1738C27.0659 34.1738 27.5945 33.7939 28.3027 33.0452C29.2576 32.0355 30.0046 31.6789 31.6086 31.4673C32.1377 31.3975 32.7009 31.2948 32.8602 31.2392C33.2319 31.1094 33.5649 30.6045 33.8454 29.7454C34.141 28.8399 34.5663 28.0169 34.9692 27.571C35.1517 27.369 35.6968 26.9421 36.1804 26.6224C36.6642 26.3027 37.1822 25.9113 37.3318 25.7526C37.5989 25.4692 37.6031 25.4495 37.5711 24.6196C37.5045 22.8954 37.5239 21.9327 37.6323 21.5762C37.6935 21.3746 37.9285 20.9005 38.1544 20.5226C39.2506 18.6888 39.2654 18.4491 38.3703 17.0152C37.6464 15.8554 37.5323 15.4964 37.5339 14.3841C37.5347 13.855 37.5508 13.042 37.5695 12.5774C37.6121 11.5257 37.5623 11.4465 36.3473 10.6278C34.8631 9.62776 34.4187 9.07732 33.9431 7.65017C33.8088 7.24705 33.5943 6.72373 33.4666 6.48735C33.1793 5.9555 32.8443 5.8047 31.6725 5.67982C30.0886 5.51088 29.5404 5.24976 28.3216 4.08346C27.8309 3.61391 27.3081 3.16709 27.1598 3.0905C26.8238 2.91715 26.1782 3.00318 25.3524 3.33127C23.8884 3.91314 23.0637 3.88364 21.1182 3.17982C20.4689 2.94491 20.0227 2.93126 19.6834 3.13585ZM22.4133 6.87728C18.3822 7.23487 14.7428 9.7213 12.9235 13.3607C12.4928 14.2222 12.0295 15.6849 11.8592 16.7206C11.6613 17.9253 11.7253 20.0521 11.9919 21.1269C12.3799 22.691 12.9172 23.9205 13.7693 25.1944C14.4202 26.1674 15.9897 27.7041 17.0211 28.3783C19.7036 30.1316 22.9191 30.7143 26.0307 30.0108C32.7899 28.4829 36.7605 21.455 34.5836 14.8724C34.0325 13.2059 33.2018 11.8093 32.0054 10.5375C29.5471 7.9243 25.9751 6.56129 22.4133 6.87728ZM22.2176 8.89866C20.0782 9.16591 18.0384 10.1858 16.5301 11.7422C15.3218 12.9892 14.5634 14.2872 14.0498 15.9875C13.8188 16.7523 13.8003 16.9349 13.7951 18.507C13.7898 20.0841 13.807 20.2644 14.0406 21.1014C14.9939 24.5169 17.5993 27.0842 21.0535 28.0119C21.842 28.2236 22.1141 28.2506 23.4545 28.2506C24.7949 28.2506 25.067 28.2236 25.8555 28.0119C29.3619 27.0702 31.9929 24.4344 32.9033 20.9511C33.1519 20 33.2382 18.0671 33.0769 17.0608C32.2421 11.8501 27.4465 8.2456 22.2176 8.89866ZM26.8034 14.8548C26.6666 14.9624 25.852 16.1066 24.9932 17.3972C24.1345 18.6878 23.3958 19.783 23.3515 19.8309C23.3029 19.8836 22.8077 19.4594 22.0952 18.7544C21.0795 17.7493 20.8791 17.5908 20.6248 17.5908C19.9453 17.5908 19.43 18.1864 19.5675 18.8128C19.6545 19.209 22.8461 22.3955 23.2332 22.4728C23.8515 22.5962 23.9998 22.4294 26.2168 19.1177C27.3581 17.4128 28.3089 15.9286 28.3298 15.8193C28.4922 14.9699 27.4746 14.3268 26.8034 14.8548ZM10.0609 36.2132C8.86725 38.2891 7.90205 39.999 7.91588 40.0129C7.92981 40.0268 8.8853 39.8917 10.0392 39.7127C11.1932 39.5336 12.2409 39.4128 12.3674 39.4441C12.8164 39.5555 13.0041 39.8767 13.7969 41.8904C14.4821 43.6309 14.6023 43.8758 14.7007 43.7313C14.8816 43.4656 19.0448 36.2357 19.1001 36.0911C19.1335 36.0039 19.0069 35.8844 18.7209 35.7329C18.4848 35.6079 17.8851 35.1207 17.3882 34.6503C16.8912 34.1799 16.3427 33.7357 16.1692 33.6633C15.9956 33.5908 15.4715 33.4909 15.0044 33.4414C14.5373 33.3919 13.9903 33.305 13.7887 33.2482C13.3152 33.1151 12.6195 32.7623 12.4662 32.5776C12.4002 32.4981 12.3204 32.4343 12.2887 32.4359C12.257 32.4374 11.2546 34.1372 10.0609 36.2132ZM34.4428 32.5776C34.2895 32.7623 33.5938 33.1151 33.1203 33.2482C32.9187 33.305 32.3716 33.3919 31.9046 33.4414C31.4375 33.4909 30.9064 33.5936 30.7243 33.6698C30.5423 33.7458 29.9958 34.1893 29.51 34.6551C29.0242 35.121 28.4315 35.6053 28.1927 35.7313C27.9135 35.8787 27.776 36.0051 27.8069 36.0861C27.861 36.2273 32.0313 43.4711 32.2084 43.7313C32.3067 43.8757 32.4271 43.6306 33.1121 41.8904C33.9046 39.8775 34.0931 39.5548 34.5404 39.445C34.6663 39.4141 35.7162 39.5327 36.8733 39.7087C38.0305 39.8847 38.9869 40.019 38.9986 40.0074C39.0356 39.9703 34.6805 32.439 34.6202 32.436C34.5886 32.4343 34.5088 32.4981 34.4428 32.5776Z" fill="black"/>
</svg>
