<svg width="49" height="49" viewBox="0 0 49 49" fill="none" xmlns="http://www.w3.org/2000/svg">
<g clip-path="url(#clip0_212_264)">
<path fill-rule="evenodd" clip-rule="evenodd" d="M19.0856 0.233225L18.8519 0.466874V3.14146V5.81605L19.0856 6.0497C19.3834 6.34761 19.7485 6.34761 20.0463 6.0497L20.2801 5.81605V3.6218V1.42765H23.8981H27.5161V3.6218V5.81605L27.7499 6.0497L27.9835 6.28344H30.2176C31.4463 6.28344 32.5209 6.25678 32.6057 6.22432C32.9797 6.08083 33.0384 5.71455 33.0384 3.52707V1.42765H36.5136H39.9888V9.75866V18.0897H35.13C29.8046 18.0897 29.6832 18.1012 29.5529 18.6205C29.4646 18.972 29.6132 19.3465 29.898 19.4906C30.0413 19.5632 30.5186 19.6108 31.1104 19.6116L32.0863 19.6131V21.3691C32.0863 23.0883 32.0911 23.1309 32.316 23.3924L32.5459 23.6595H34.5509C37.1862 23.6595 36.9795 23.8471 37.0193 21.4197L37.0488 19.6131H40.5183H43.9877V24.3152V29.0173L42.869 28.4584C41.5245 27.7867 40.44 27.4637 39.0351 27.3166C34.5058 26.8424 30.0305 29.4663 28.1792 33.6814C27.2151 35.8767 27.0152 38.1116 27.5663 40.5358C27.6149 40.7494 27.6118 40.75 26.3754 40.75H25.1358V30.1815V19.6131H26.0359C27.0666 19.6131 27.3598 19.5144 27.5267 19.1116C27.6245 18.8755 27.6209 18.7818 27.5064 18.5778C27.2908 18.1935 26.9817 18.0926 26.0166 18.0911L25.1358 18.0897L25.1355 15.1143C25.135 11.0324 25.286 11.2344 22.2367 11.2344H20.2801V9.91805C20.2801 8.66516 20.2694 8.59175 20.0597 8.39466C19.7673 8.12007 19.3762 8.13083 19.0856 8.42142C18.8605 8.6465 18.8519 8.70258 18.8519 9.94271V11.2303L12.7986 11.2561L6.74536 11.282L6.41945 11.6377L6.09354 11.9934V14.9463C6.09354 17.7723 6.10173 17.9074 6.28396 18.0897C6.5675 18.3732 7.07707 18.3436 7.32434 18.0292C7.51286 17.7896 7.52171 17.6641 7.52171 15.2205V12.6626H10.3305H13.1392V14.4588C13.1392 16.1317 13.1527 16.2722 13.3366 16.5058L13.5338 16.7567H15.6069C17.5926 16.7567 17.6874 16.7483 17.8612 16.5565C18.0239 16.3769 18.0458 16.1662 18.0736 14.5094L18.1048 12.6626H20.9062H23.7077V18.8514V25.0401H15.6147H7.52171V22.9499C7.52171 20.7297 7.47887 20.4725 7.07831 20.29C6.75202 20.1414 6.63063 20.1565 6.34442 20.3817L6.09354 20.579V22.8096V25.0401H5.13666C4.46761 25.0401 4.09581 25.0835 3.90053 25.1845C3.32488 25.4823 3.3324 25.4071 3.3324 30.8395V35.7916L3.54082 35.9857C3.89682 36.3173 4.39592 36.2279 4.62128 35.7922C4.73782 35.5669 4.76058 34.7827 4.76058 30.9956V26.4683H8.94988H13.1392V28.1869C13.1392 29.9732 13.2124 30.3653 13.5719 30.5033C13.6567 30.5357 14.5771 30.5624 15.6172 30.5624C17.4786 30.5624 17.5125 30.5588 17.7754 30.3327L18.0426 30.1032L18.0738 28.2857L18.105 26.4683H20.9064H23.7077V33.6091V40.75H14.2421H4.77648L4.74477 39.5988C4.71507 38.5231 4.69821 38.4358 4.48818 38.2659C4.19673 38.0301 3.76333 38.034 3.52283 38.2745C3.35354 38.4438 3.3324 38.5919 3.3324 39.6075V40.75H1.89995C0.505954 40.75 0.461109 40.7563 0.233744 40.9838C0.00190423 41.2155 0 41.2322 0 43.0351C0 44.838 0.00190423 44.8547 0.233744 45.0864C0.45673 45.3095 0.521378 45.3202 1.64935 45.3202H2.83131L2.87634 46.0105C2.94756 47.1011 3.44799 47.894 4.39696 48.4197C4.84617 48.6685 4.9948 48.7002 5.71269 48.7002C6.43192 48.7002 6.57874 48.6688 7.03223 48.4176C8.00034 47.8814 8.61579 46.8301 8.55266 45.8202L8.52143 45.3199L19.3352 45.3201L30.1488 45.3202L30.3797 45.5716C30.7527 45.9779 31.9487 46.9048 32.569 47.2684C35.5861 49.0367 39.3504 49.2178 42.5318 47.748C44.6632 46.7632 46.6287 44.8302 47.6544 42.71C48.4689 41.0266 48.8119 39.3354 48.7172 37.4708C48.5989 35.1417 47.8329 33.1209 46.3791 31.3022C46.0747 30.9214 45.7335 30.5284 45.6208 30.4286L45.4159 30.2472V24.3736C45.4159 18.5254 45.415 18.4993 45.2157 18.3187C45.0366 18.1564 44.826 18.1339 43.2162 18.106L41.417 18.0748L41.4166 9.4894C41.4163 1.14221 41.4111 0.895516 41.2304 0.599218C40.8411 -0.0393658 41.5755 -0.000519529 29.8968 -0.000519529H19.3193L19.0856 0.233225ZM28.9443 3.14146V4.85527H30.2297H31.515V3.14146V1.42765H30.2297H28.9443V3.14146ZM14.5674 13.9956V15.3285H15.5671H16.5668V13.9956V12.6626H15.5671H14.5674V13.9956ZM33.5145 20.8984V22.1838H34.5142H35.5139V20.8984V19.6131H34.5142H33.5145V20.8984ZM14.5885 27.7774L14.615 29.0866L15.5909 29.1137L16.5668 29.1409V27.8046V26.4683H15.5644H14.562L14.5885 27.7774ZM37.0066 28.7628C34.9482 28.9783 33.0935 29.8579 31.5411 31.3548C28.089 34.6837 27.7638 40.0711 30.7871 43.8452C32.0703 45.4471 33.7888 46.533 35.8687 47.0562C37.0204 47.3459 39.1168 47.3441 40.1959 47.0524C43.6695 46.1138 46.1143 43.669 47.053 40.1954C47.3446 39.1163 47.3464 37.0199 47.0567 35.8681C45.9011 31.2743 41.6597 28.2756 37.0066 28.7628ZM33.9987 32.6244C33.062 32.968 32.3817 34.0644 32.4977 35.0432C32.6736 36.5285 34.0758 37.4359 35.5615 37.0258C35.8069 36.958 36.1164 36.7466 36.4317 36.4312C37.1513 35.7118 37.3357 34.7812 36.9344 33.8948C36.4191 32.7565 35.1432 32.2043 33.9987 32.6244ZM37.4906 37.4901C32.7396 42.241 32.7393 42.2413 32.7699 42.6049C32.809 43.0722 33.1746 43.3778 33.5776 43.2801C33.9563 43.1883 43.1888 33.9558 43.2806 33.5771C43.3783 33.1741 43.0727 32.8085 42.6054 32.7694C42.2418 32.7388 42.2415 32.7391 37.4906 37.4901ZM34.5142 33.9848C33.8182 34.2696 33.7365 35.2327 34.38 35.5655C34.7934 35.7792 35.1153 35.7362 35.426 35.4255C35.8596 34.9919 35.7342 34.2595 35.1833 34.0086C34.8988 33.8789 34.7829 33.8748 34.5142 33.9848ZM40.4335 38.9948C39.4573 39.3065 38.7406 40.4533 38.8811 41.4789C39.1433 43.3908 41.4816 44.1936 42.8379 42.8373C44.2298 41.4454 43.3432 39.0409 41.381 38.8863C41.0968 38.8639 40.7015 38.9092 40.4335 38.9948ZM40.941 40.3415C40.2244 40.605 40.1071 41.6074 40.7538 41.9418C41.1725 42.1584 41.4934 42.1165 41.8052 41.8047C42.2614 41.3484 42.099 40.588 41.5009 40.3795C41.1722 40.2649 41.1528 40.2636 40.941 40.3415ZM1.42817 43.0351V43.892H15.1862C22.7532 43.892 28.9443 43.8754 28.9443 43.8552C28.9443 43.8349 28.748 43.4493 28.508 42.9982L28.0718 42.1782H14.75H1.42817V43.0351ZM4.32698 45.6472C4.20007 46.3238 4.65289 47.0323 5.34489 47.2395C6.29548 47.5243 7.28244 46.6281 7.0984 45.6472L7.03699 45.3202H5.71269H4.38839L4.32698 45.6472Z" fill="black"/>
</g>
<defs>
<clipPath id="clip0_212_264">
<rect width="48.7483" height="48.7483" fill="white"/>
</clipPath>
</defs>
</svg>
