<svg width="57" height="57" viewBox="0 0 57 57" fill="none" xmlns="http://www.w3.org/2000/svg">
<g clip-path="url(#clip0_212_268)">
<path fill-rule="evenodd" clip-rule="evenodd" d="M8.27331 9.46724C7.21485 9.80531 6.21348 10.6157 5.75225 11.5075C5.54075 11.9165 5.26942 13.2954 5.26362 13.9908C5.25605 14.8984 6.18083 15.4941 6.9524 15.0786C7.42317 14.825 7.53922 14.5995 7.67488 13.6746C7.83279 12.5973 7.96243 12.3063 8.42454 11.9923L8.81728 11.7254H23.3189C32.5685 11.7254 37.893 11.7643 38.0208 11.8327C38.4723 12.0743 38.4605 12.279 37.574 19.5058C37.1045 23.333 36.4849 28.3999 36.1971 30.7655L35.6737 35.0666H20.3792H5.08467L4.94319 34.6755C4.79 34.2518 4.27035 33.8623 3.85712 33.8616C3.44662 33.861 2.99952 34.1551 2.82419 34.5413C2.73411 34.7398 2.54924 35.8279 2.41347 36.9591C2.20932 38.6595 2.1886 39.1037 2.29391 39.5217C2.48875 40.2955 2.79076 40.8047 3.34361 41.2913C4.07804 41.9378 4.60338 42.0799 6.25819 42.0799C7.81865 42.0799 7.70096 42.0136 7.8295 42.9641C8.07289 44.7632 9.73921 46.3645 11.7215 46.7044C14.2408 47.1364 17.0184 45.3854 17.971 42.7648L18.22 42.0799H28.2756H38.3314L38.4592 42.8137C38.638 43.8406 39.0591 44.6628 39.7711 45.3748C41.726 47.3296 44.8546 47.2159 47.0884 45.1086C47.865 44.3759 48.4517 43.4617 48.7118 42.5789L48.8426 42.1347L50.5842 42.0775C52.0567 42.0292 52.4056 41.9838 52.8426 41.784C53.8159 41.3388 54.738 40.285 55.0261 39.2886C55.2233 38.6066 56.1516 30.8205 56.1338 29.9972C56.1237 29.5294 56.0613 28.839 55.9951 28.463C55.848 27.6281 52.8953 18.6758 52.521 17.9297C51.9688 16.8293 50.8572 15.9026 49.5313 15.4377C48.8482 15.198 48.6492 15.1861 44.6688 15.1451L40.5185 15.1022L40.59 14.5919C40.7928 13.1451 40.7959 12.0953 40.5996 11.5037C40.3615 10.7873 39.6444 9.98382 38.9226 9.62493L38.4087 9.36938L23.5602 9.34834C11.7667 9.33158 8.62146 9.35612 8.27331 9.46724ZM1.82534 17.7584C1.40224 18.0912 1.24246 18.7193 1.46941 19.1582C1.85438 19.9027 1.73394 19.8857 6.89849 19.9232C9.46273 19.9417 11.7784 19.9252 12.0444 19.8864C13.1318 19.7276 13.528 18.6568 12.7772 17.9059L12.4046 17.5333H7.25803C2.23255 17.5333 2.10466 17.5386 1.82534 17.7584ZM40.1723 17.9394C40.1363 18.1681 39.6644 22.0043 39.1234 26.4643C38.5824 30.9244 38.1207 34.6844 38.0976 34.8201L38.0555 35.0666H45.6299H53.2041L53.4531 32.9571C53.59 31.797 53.7005 30.4902 53.6987 30.0532L53.6955 29.2587H49.6573C46.9297 29.2587 45.4981 29.2183 45.2465 29.134C44.2758 28.809 43.7273 28.0221 43.7295 26.9575C43.7301 26.626 43.869 25.2945 44.0379 23.9987C44.3761 21.4056 44.5259 20.9462 45.2016 20.4308C45.8894 19.9062 46.2407 19.8445 48.5725 19.8394C49.7629 19.8368 50.7368 19.8159 50.7368 19.7931C50.7368 19.7704 50.6583 19.5639 50.5624 19.3344C50.2741 18.6445 49.8721 18.2128 49.219 17.8922L48.5999 17.5881L44.4187 17.5559L40.2377 17.5237L40.1723 17.9394ZM46.6321 22.492C46.5641 22.8012 46.1343 26.3964 46.1343 26.6561C46.1343 26.8347 46.3722 26.8479 49.5952 26.8479C52.3172 26.8479 53.0458 26.8186 53.0073 26.7109C52.9804 26.6356 52.6434 25.6008 52.2585 24.4115L51.5586 22.2491L49.1225 22.2473L46.6863 22.2454L46.6321 22.492ZM4.31605 23.4486C3.59094 23.7416 3.39194 24.7306 3.93569 25.3394L4.25523 25.6973L7.30942 25.7295C10.3449 25.7614 10.3659 25.7601 10.7395 25.5082C11.4443 25.0333 11.4478 24.0624 10.7466 23.5898C10.3855 23.3464 10.3168 23.3413 7.46262 23.3481C5.85931 23.352 4.44339 23.3972 4.31605 23.4486ZM0.7992 29.2704C0.310679 29.4117 0.109375 29.7483 0.109375 30.424C0.109375 30.9244 0.149811 31.0266 0.446562 31.2763L0.78364 31.56L5.24082 31.5595C9.47292 31.5592 9.71565 31.5483 10.0499 31.3445C10.4525 31.0991 10.6411 30.5804 10.5051 30.0929C10.3815 29.6496 10.1139 29.3877 9.65406 29.2599C9.15491 29.1213 1.28268 29.1306 0.7992 29.2704ZM4.67329 38.0528C4.56404 38.9625 4.58738 39.1735 4.82572 39.4292C5.03557 39.6545 5.14505 39.6691 6.62343 39.6691H8.1977L8.48054 39.1865C8.63603 38.9211 9.01552 38.428 9.32378 38.0907L9.88429 37.4774H7.31337H4.74244L4.67329 38.0528ZM17.3145 38.0528C17.5539 38.3691 17.8342 38.8626 17.9373 39.1492L18.1247 39.6704L26.6226 39.6424L35.1203 39.6143L35.1972 38.9568C35.2396 38.5952 35.2968 38.1145 35.3242 37.8884L35.3743 37.4774H26.1266H16.879L17.3145 38.0528ZM37.7664 37.6692C37.7366 37.7746 37.6804 38.1815 37.6416 38.5733C37.6028 38.965 37.5466 39.3719 37.5168 39.4773C37.4691 39.6457 37.5481 39.6691 38.1628 39.6691H38.8631L39.3853 38.9048C39.6725 38.4844 40.0775 37.9913 40.2852 37.8089L40.6628 37.4774H39.2417C37.9822 37.4774 37.8146 37.4993 37.7664 37.6692ZM47.9724 38.0194C48.198 38.3176 48.4793 38.8107 48.5976 39.1153L48.8125 39.6691H50.2822C51.5645 39.6691 51.7975 39.6409 52.1094 39.4482C52.5319 39.1871 52.7723 38.7146 52.8471 37.998L52.9015 37.4774H50.2319H47.5622L47.9724 38.0194ZM12.7901 38.6929C11.4413 39.0105 10.2524 40.3398 10.1146 41.684C10.0304 42.5068 10.2429 43.1468 10.7778 43.6818C12.1128 45.0168 14.573 44.3504 15.5536 42.388C16.341 40.8122 15.6966 39.0734 14.1838 38.6925C13.6409 38.5559 13.3719 38.5559 12.7901 38.6929ZM43.3399 38.7201C42.5893 38.9685 42.24 39.1993 41.669 39.8242C39.5488 42.1439 41.4328 45.2352 44.3108 44.1584C45.5941 43.6782 46.5726 42.3433 46.5726 41.0726C46.5726 40.3686 46.3665 39.7601 45.992 39.3585C45.4015 38.7255 44.1987 38.4359 43.3399 38.7201Z" fill="black"/>
</g>
<defs>
<clipPath id="clip0_212_268">
<rect width="56.1065" height="56.1065" fill="white"/>
</clipPath>
</defs>
</svg>
