<svg width="56" height="56" viewBox="0 0 56 56" fill="none" xmlns="http://www.w3.org/2000/svg">
<path d="M24.7207 0.530273C26.985 0.246957 31.2492 0.444157 33.6045 0.943359C43.1408 2.96489 50.8714 9.78011 54.0957 19.0088C57.5569 28.9165 54.9258 40.2252 47.4365 47.625C43.6023 51.4132 39.3401 53.7369 33.7041 55.1016C32.5722 55.3754 30.7299 55.5456 28.8115 55.5889C26.8963 55.632 24.9466 55.5481 23.6055 55.3271C11.7481 53.3725 2.66791 44.284 0.677734 32.374C0.456765 31.0509 0.369293 29.1765 0.40918 27.3086C0.449096 25.4396 0.615893 23.6099 0.890625 22.375C3.51638 10.5729 12.8574 2.01419 24.7207 0.530273ZM46.4424 12.1504C46.3845 12.1594 46.3415 12.1793 46.3262 12.1865C46.2905 12.2035 46.2616 12.223 46.248 12.2324C46.2161 12.2548 46.1801 12.2833 46.1465 12.3115C46.0764 12.3703 45.9797 12.4569 45.8604 12.5664C45.6203 12.7867 45.2737 13.1152 44.833 13.5381C43.9506 14.3849 42.6845 15.619 41.1299 17.1475C38.0199 20.205 33.7501 24.4445 29.0713 29.127L12.0596 46.1514L11.7461 46.4658L12.0898 46.7451L12.6328 47.1855C15.2387 49.3037 19.5369 51.306 23.0049 52.0225C24.6265 52.3573 26.7685 52.4789 28.8545 52.4131C30.9388 52.3473 33.0043 52.093 34.4688 51.6582C41.593 49.5431 47.1515 44.82 50.2227 38.2617C53.3791 31.5213 53.1201 22.8656 49.5645 16.4141C48.9813 15.3562 47.78 13.5297 47.0762 12.6152L46.8086 12.2842L46.7549 12.2314C46.6257 12.128 46.4798 12.1446 46.4424 12.1504ZM37.2275 24.5537C37.2866 24.65 37.3551 24.7645 37.4307 24.8955C37.6856 25.3377 38.0143 25.9423 38.3496 26.583C39.0269 27.877 39.7074 29.2698 39.8828 29.7754C42.0661 36.0709 38.5034 43.3314 32.127 45.5508C28.0189 46.9804 22.9286 46.0379 19.8145 43.2891L19.1289 42.6836L19.9873 41.8174L20.8721 40.9209L21.5215 41.5088C23.4902 43.2884 26.8129 44.228 29.4727 43.7637C32.7876 43.1849 35.7008 41.0189 37.0684 38.0947C37.9012 36.3137 38.2613 34.6368 38.1094 32.9102C37.9578 31.1882 37.2999 29.4505 36.1533 27.541L35.4424 26.3574L36.373 25.4092C36.6869 25.089 36.977 24.7983 37.1914 24.5889C37.2037 24.5769 37.2158 24.5651 37.2275 24.5537ZM35.6201 4.73242C32.1624 3.53789 27.3681 3.19436 23.6289 3.87012C8.21303 6.65712 -0.750918 23.3548 5.45703 37.7236C5.81188 38.545 6.67671 40.067 7.47852 41.3691C7.88147 42.0236 8.27423 42.6326 8.58691 43.0801C8.74241 43.3026 8.88346 43.4919 8.99805 43.6289C9.05427 43.6961 9.11202 43.7607 9.16797 43.8115C9.19547 43.8365 9.23232 43.8671 9.27539 43.8936C9.3081 43.9136 9.3981 43.9648 9.51953 43.9648C9.61222 43.9648 9.68002 43.9322 9.68945 43.9277C9.71195 43.9172 9.72922 43.9065 9.7373 43.9014C9.75429 43.8905 9.7673 43.8798 9.77344 43.875C9.78739 43.8641 9.80134 43.8527 9.81152 43.8438C9.8333 43.8247 9.86161 43.7994 9.89355 43.7695C9.95856 43.7088 10.051 43.6199 10.1689 43.5059C10.4058 43.277 10.7501 42.94 11.1895 42.5078C12.0684 41.6431 13.3306 40.3927 14.8828 38.8506C17.9873 35.7663 22.2522 31.5122 26.9277 26.833L43.9297 9.81934L44.2744 9.47363L43.8682 9.20312L41.6719 7.74121C39.3462 6.19289 38.2053 5.62576 35.6201 4.73242ZM28.0742 9.92188L28.7607 9.97266L30.4766 12.9102C31.4799 14.6278 32.4725 16.3536 32.6855 16.749L32.9395 17.2207L32.0586 18.1172C31.7629 18.4176 31.4821 18.6884 31.2695 18.8828C31.2508 18.9 31.2313 18.9149 31.2139 18.9307C31.1449 18.8236 31.0602 18.6936 30.9668 18.541C30.6858 18.0818 30.3134 17.4453 29.917 16.7441C29.5171 16.0369 29.1356 15.3919 28.8438 14.9219C28.6985 14.688 28.573 14.493 28.4766 14.3545C28.4292 14.2864 28.3836 14.2245 28.3438 14.1768C28.3248 14.154 28.2987 14.1239 28.2686 14.0967C28.2539 14.0834 28.2286 14.0622 28.1953 14.042C28.1713 14.0274 28.0925 13.9814 27.9814 13.9805C27.8957 13.9798 27.8317 14.0066 27.8027 14.0205C27.77 14.0363 27.7452 14.0531 27.7314 14.0635C27.7041 14.0842 27.6845 14.105 27.6748 14.1152C27.6538 14.1374 27.6358 14.161 27.623 14.1777C27.5956 14.2138 27.5626 14.2608 27.5273 14.3135C27.4557 14.4207 27.3576 14.5749 27.2373 14.7686C26.9957 15.1576 26.6566 15.7187 26.2461 16.4082C25.4249 17.7876 24.3128 19.6892 23.1074 21.7803C21.6746 24.266 20.5348 26.3047 19.7129 27.8486C18.8985 29.3784 18.3777 30.455 18.2061 31C17.9985 31.6589 17.8411 32.05 17.5889 32.4316C17.3312 32.8214 16.9628 33.2195 16.2998 33.8721L15.4951 34.6641L15.5498 33.2207C15.615 31.4903 15.7739 30.4647 16.084 29.6143C16.1284 29.4926 16.3164 29.1128 16.6396 28.502C16.9555 27.9052 17.3839 27.1169 17.8887 26.2012C18.898 24.3701 20.2099 22.0345 21.5303 19.7109C22.8506 17.3875 24.1791 15.0776 25.2217 13.2979C25.7431 12.4078 26.1926 11.6511 26.5332 11.0928C26.7035 10.8136 26.8453 10.5857 26.9551 10.416L27.1592 10.1201C27.2847 9.97658 27.4704 9.87724 28.0742 9.92188Z" fill="#149B77" stroke="#F1F9F8" stroke-width="0.8"/>
</svg>
