<svg width="47" height="49" viewBox="0 0 47 49" fill="none" xmlns="http://www.w3.org/2000/svg">
<mask id="path-1-inside-1_249_729" fill="white">
<path fill-rule="evenodd" clip-rule="evenodd" d="M17.1608 0.1521C15.6132 0.536412 14.433 1.29434 11.5904 3.72908C8.16801 6.6607 7.44214 7.47007 6.55439 9.34426C5.89844 10.7295 5.89024 10.8222 5.81161 17.7408C5.73861 24.1659 5.76858 24.7633 6.18069 25.0628C6.77415 25.4945 7.1773 25.4744 7.66574 24.989C8.0087 24.6477 8.07196 23.6433 8.09373 18.1763C8.10782 14.6492 8.19926 11.4772 8.2971 11.127L8.47486 10.4903L12.3696 10.42L16.2643 10.3497V13.6672V16.9847H19.4659H22.6676V13.6738V10.363H27.0218H31.376V19.9899C31.376 27.138 31.4552 29.6955 31.6834 29.9224C32.1539 30.3902 33.1198 30.2861 33.4161 29.7354C33.5851 29.4214 33.6835 25.7515 33.6876 19.6119L33.6937 9.98096L36.3801 7.87985C37.8574 6.72411 39.1668 5.77874 39.2894 5.77874C39.4121 5.77874 39.5819 6.03648 39.667 6.35177C39.9369 7.35317 39.8473 23.0142 39.5676 23.7459C39.4242 24.121 38.675 25.1851 37.9027 26.1101C36.3181 28.0082 36.1362 28.8013 37.1779 29.2732C37.8259 29.5669 37.9258 29.5055 39.3642 27.9308C40.1933 27.0231 41.1612 25.695 41.515 24.9793L42.1584 23.6781L42.0818 14.6648L42.0054 5.6514L41.3211 4.36196C40.503 2.82064 38.9219 1.33916 37.2983 0.592696C36.1659 0.072131 35.7197 0.046663 27.0218 0.0048955C22.0208 -0.0190444 17.5834 0.0471724 17.1608 0.1521ZM17.2888 2.55628C15.9908 3.0203 15.8325 3.13109 12.8614 5.6514L10.1589 7.94352L13.651 8.01483L17.1428 8.08588L20.096 5.14968L23.049 2.21322L20.6172 2.22443C19.2797 2.23054 17.7819 2.37978 17.2888 2.55628ZM26.7882 5.06818L23.6089 7.94352L27.4285 8.0189C29.5291 8.06042 31.5937 8.03138 32.0163 7.95447C32.8475 7.80319 37.6512 4.13631 37.6512 3.65318C37.6512 3.49172 37.1902 3.13007 36.6267 2.84992C35.8273 2.45237 34.9831 2.32426 32.7847 2.26671L29.9673 2.1931L26.7882 5.06818ZM0.604725 28.6775L0 29.1642V37.4372C0 45.2151 0.0291988 45.7421 0.487929 46.2461C0.939232 46.7419 1.24223 46.7822 4.52199 46.7822C7.7267 46.7822 8.11755 46.733 8.58038 46.2728C8.86213 45.9927 9.09264 45.5791 9.09264 45.3539C9.09264 44.8627 8.54145 44.7419 16.7766 47.0353C24.3327 49.1398 24.6039 49.1927 25.9688 48.8273C26.5615 48.6686 31.1038 46.4789 36.0627 43.9613C46.2165 38.8066 47 38.255 47 36.2606C47 34.243 45.2429 32.5214 43.1829 32.5206C42.7034 32.5204 40.2164 33.0957 37.6561 33.7989C33.1602 35.0341 32.9694 35.0644 32.0689 34.6902C31.3814 34.4047 30.1717 34.3029 27.4639 34.3029C23.9152 34.3029 23.762 34.2807 22.9094 33.6458C20.1726 31.6071 16.6759 30.5125 12.2302 30.3024C9.52166 30.1743 9.09264 30.0953 9.09264 29.726C9.09264 29.4907 8.82576 29.0488 8.49996 28.7442C7.95363 28.2341 7.64397 28.1906 4.5581 28.1906C1.64257 28.1906 1.13107 28.2535 0.604725 28.6775ZM2.17711 37.6137V44.7447H4.61035H7.0436V37.6137V30.4827H4.61035H2.17711V37.6137ZM9.41281 32.4172C9.1723 32.5265 9.09264 33.8223 9.09264 37.6252V42.6877L10.1812 42.9765C10.7798 43.1352 14.0936 44.0563 17.545 45.0234C20.9963 45.9901 24.2584 46.7817 24.794 46.7817C25.5514 46.7822 27.7758 45.7637 34.7995 42.201C39.7671 39.6815 44.1021 37.3331 44.4333 36.9826C44.9525 36.433 44.995 36.2568 44.7409 35.7023C44.1393 34.3897 43.617 34.394 38.6419 35.7551L34.0654 37.0071L33.9145 38.1154C33.7247 39.5108 32.6928 40.4883 30.8279 41.0389C28.8636 41.6188 19.0441 41.6147 18.4596 41.0338C18.0009 40.5774 17.9594 40.1997 18.3075 39.6511C18.508 39.3351 19.6073 39.2472 24.6805 39.1418C30.2452 39.0262 30.8612 38.9696 31.3499 38.5293C32.023 37.9226 32.0297 37.4996 31.376 36.8497C30.9076 36.3839 30.5223 36.3403 26.8666 36.3403H22.8694L21.8969 35.5745C20.6634 34.6029 18.1051 33.4145 16.1882 32.9228C14.6174 32.5196 9.95401 32.1717 9.41281 32.4172Z"/>
</mask>
<path fill-rule="evenodd" clip-rule="evenodd" d="M17.1608 0.1521C15.6132 0.536412 14.433 1.29434 11.5904 3.72908C8.16801 6.6607 7.44214 7.47007 6.55439 9.34426C5.89844 10.7295 5.89024 10.8222 5.81161 17.7408C5.73861 24.1659 5.76858 24.7633 6.18069 25.0628C6.77415 25.4945 7.1773 25.4744 7.66574 24.989C8.0087 24.6477 8.07196 23.6433 8.09373 18.1763C8.10782 14.6492 8.19926 11.4772 8.2971 11.127L8.47486 10.4903L12.3696 10.42L16.2643 10.3497V13.6672V16.9847H19.4659H22.6676V13.6738V10.363H27.0218H31.376V19.9899C31.376 27.138 31.4552 29.6955 31.6834 29.9224C32.1539 30.3902 33.1198 30.2861 33.4161 29.7354C33.5851 29.4214 33.6835 25.7515 33.6876 19.6119L33.6937 9.98096L36.3801 7.87985C37.8574 6.72411 39.1668 5.77874 39.2894 5.77874C39.4121 5.77874 39.5819 6.03648 39.667 6.35177C39.9369 7.35317 39.8473 23.0142 39.5676 23.7459C39.4242 24.121 38.675 25.1851 37.9027 26.1101C36.3181 28.0082 36.1362 28.8013 37.1779 29.2732C37.8259 29.5669 37.9258 29.5055 39.3642 27.9308C40.1933 27.0231 41.1612 25.695 41.515 24.9793L42.1584 23.6781L42.0818 14.6648L42.0054 5.6514L41.3211 4.36196C40.503 2.82064 38.9219 1.33916 37.2983 0.592696C36.1659 0.072131 35.7197 0.046663 27.0218 0.0048955C22.0208 -0.0190444 17.5834 0.0471724 17.1608 0.1521ZM17.2888 2.55628C15.9908 3.0203 15.8325 3.13109 12.8614 5.6514L10.1589 7.94352L13.651 8.01483L17.1428 8.08588L20.096 5.14968L23.049 2.21322L20.6172 2.22443C19.2797 2.23054 17.7819 2.37978 17.2888 2.55628ZM26.7882 5.06818L23.6089 7.94352L27.4285 8.0189C29.5291 8.06042 31.5937 8.03138 32.0163 7.95447C32.8475 7.80319 37.6512 4.13631 37.6512 3.65318C37.6512 3.49172 37.1902 3.13007 36.6267 2.84992C35.8273 2.45237 34.9831 2.32426 32.7847 2.26671L29.9673 2.1931L26.7882 5.06818ZM0.604725 28.6775L0 29.1642V37.4372C0 45.2151 0.0291988 45.7421 0.487929 46.2461C0.939232 46.7419 1.24223 46.7822 4.52199 46.7822C7.7267 46.7822 8.11755 46.733 8.58038 46.2728C8.86213 45.9927 9.09264 45.5791 9.09264 45.3539C9.09264 44.8627 8.54145 44.7419 16.7766 47.0353C24.3327 49.1398 24.6039 49.1927 25.9688 48.8273C26.5615 48.6686 31.1038 46.4789 36.0627 43.9613C46.2165 38.8066 47 38.255 47 36.2606C47 34.243 45.2429 32.5214 43.1829 32.5206C42.7034 32.5204 40.2164 33.0957 37.6561 33.7989C33.1602 35.0341 32.9694 35.0644 32.0689 34.6902C31.3814 34.4047 30.1717 34.3029 27.4639 34.3029C23.9152 34.3029 23.762 34.2807 22.9094 33.6458C20.1726 31.6071 16.6759 30.5125 12.2302 30.3024C9.52166 30.1743 9.09264 30.0953 9.09264 29.726C9.09264 29.4907 8.82576 29.0488 8.49996 28.7442C7.95363 28.2341 7.64397 28.1906 4.5581 28.1906C1.64257 28.1906 1.13107 28.2535 0.604725 28.6775ZM2.17711 37.6137V44.7447H4.61035H7.0436V37.6137V30.4827H4.61035H2.17711V37.6137ZM9.41281 32.4172C9.1723 32.5265 9.09264 33.8223 9.09264 37.6252V42.6877L10.1812 42.9765C10.7798 43.1352 14.0936 44.0563 17.545 45.0234C20.9963 45.9901 24.2584 46.7817 24.794 46.7817C25.5514 46.7822 27.7758 45.7637 34.7995 42.201C39.7671 39.6815 44.1021 37.3331 44.4333 36.9826C44.9525 36.433 44.995 36.2568 44.7409 35.7023C44.1393 34.3897 43.617 34.394 38.6419 35.7551L34.0654 37.0071L33.9145 38.1154C33.7247 39.5108 32.6928 40.4883 30.8279 41.0389C28.8636 41.6188 19.0441 41.6147 18.4596 41.0338C18.0009 40.5774 17.9594 40.1997 18.3075 39.6511C18.508 39.3351 19.6073 39.2472 24.6805 39.1418C30.2452 39.0262 30.8612 38.9696 31.3499 38.5293C32.023 37.9226 32.0297 37.4996 31.376 36.8497C30.9076 36.3839 30.5223 36.3403 26.8666 36.3403H22.8694L21.8969 35.5745C20.6634 34.6029 18.1051 33.4145 16.1882 32.9228C14.6174 32.5196 9.95401 32.1717 9.41281 32.4172Z" fill="black" stroke="white" mask="url(#path-1-inside-1_249_729)"/>
</svg>
