<svg width="58" height="58" viewBox="0 0 58 58" fill="none" xmlns="http://www.w3.org/2000/svg">
<path fill-rule="evenodd" clip-rule="evenodd" d="M14.101 7.11303C1.14475 13.6345 0 14.267 0 14.9063C0 15.5342 0.613218 15.9099 6.31473 18.7738L12.6295 21.9457L6.38419 25.1204C0.751032 27.9838 0.138926 28.3634 0.138926 28.9923C0.138926 29.6213 0.751032 30.0009 6.38419 32.8643L12.6295 36.039L6.31473 39.2108C0.613218 42.0748 0 42.4505 0 43.0783C0 43.7179 1.14419 44.3485 14.1693 50.887C21.9625 54.7991 28.5898 58 28.8965 58C29.6892 58 57.6872 43.8961 57.8764 43.4016C57.9623 43.1765 57.885 42.8028 57.7044 42.5707C57.5241 42.3387 54.6267 40.7734 51.2661 39.092L45.1558 36.0351L51.2791 32.9591C54.647 31.2675 57.568 29.6829 57.7706 29.4378C58.0765 29.0679 58.0765 28.9168 57.7706 28.5469C57.568 28.3017 54.647 26.7172 51.2791 25.0255L45.1558 21.9496L51.2661 18.8927C54.6267 17.2113 57.5241 15.646 57.7044 15.414C57.885 15.1819 57.9623 14.8082 57.8764 14.5831C57.6725 14.0495 29.6473 -0.0200607 28.8282 2.14777e-05C28.4836 0.00838907 21.8566 3.20927 14.101 7.11303ZM15.9062 8.43818L3.0547 14.9088L15.9756 21.3923L28.8965 27.8758L41.8175 21.3923L54.7384 14.9088L41.8869 8.43818C34.8187 4.87944 28.9729 1.96752 28.8965 1.96752C28.8201 1.96752 22.9744 4.87944 15.9062 8.43818ZM8.9607 26.0068C5.866 27.5685 3.33422 28.9187 3.33422 29.0071C3.33422 29.0955 3.77461 29.3786 4.31253 29.6364L5.29084 30.1047L11.1799 27.1462L17.069 24.1879L16.1059 23.6731C15.5763 23.39 15.0179 23.1604 14.865 23.1626C14.7122 23.1649 12.0554 24.4448 8.9607 26.0068ZM29.869 29.6026L17.0879 36.0395L18.2812 36.6214L19.4746 37.2032L32.2433 30.7992C39.2659 27.2767 45.0119 24.3229 45.0119 24.2351C45.0119 24.0557 43.1592 23.1267 42.8491 23.1504C42.7396 23.1587 36.8987 26.062 29.869 29.6026ZM13.4063 28.2381C10.3116 29.7998 7.77984 31.1542 7.77984 31.248C7.77984 31.3414 8.26552 31.6379 8.85929 31.9065L9.93874 32.3952L15.8334 29.4584L21.728 26.5219L20.5999 25.944C19.9795 25.6263 19.3729 25.3736 19.2523 25.3823C19.1315 25.3909 16.501 26.6762 13.4063 28.2381ZM34.5094 31.8739L21.6449 38.3512L22.8427 38.9353L24.0408 39.5196L36.9506 33.0383L49.8604 26.5574L48.6976 25.9619C48.058 25.6344 47.4984 25.3734 47.4542 25.3817C47.4098 25.3901 41.5846 28.3115 34.5094 31.8739ZM18.0581 30.5925L12.1282 33.5348L13.4855 34.2274L14.8431 34.9199L20.6193 32.0312C23.7966 30.4424 26.3959 29.071 26.3959 28.9834C26.3959 28.8961 25.8541 28.5603 25.1919 28.2376L23.988 27.6502L18.0581 30.5925ZM39.1737 34.156L26.2569 40.6425L27.5887 41.2938L28.9202 41.9454L41.6896 35.5411C48.7126 32.0186 54.4589 29.0665 54.4589 28.9806C54.4589 28.8947 53.9259 28.5648 53.2747 28.2471L52.0904 27.6694L39.1737 34.156ZM8.95848 40.1154L3.05609 43.0806L15.9764 49.5635L28.8965 56.0467L41.8166 49.5635L54.737 43.0806L48.8346 40.1154L42.9319 37.1502L35.9142 40.6693L28.8965 44.1884L21.8788 40.6693L14.8612 37.1502L8.95848 40.1154Z" fill="#149B77"/>
</svg>
