<svg width="230" height="53" viewBox="0 0 230 53" fill="none" xmlns="http://www.w3.org/2000/svg">
<path d="M0.000248946 45.4053V38.4542H11.9893V9.88462L0.382877 12.4992V6.24965L15.4329 0.765314H19.7056V38.4542H30.2279V45.4053H0.000248946ZM50.5122 46.1705C46.4308 46.1705 43.1572 45.1502 40.6914 43.1095C38.2255 41.0688 36.4399 38.3054 35.3346 34.8192C34.2292 31.3331 33.6765 27.4217 33.6765 23.0853C33.6765 18.7488 34.2292 14.8375 35.3346 11.3514C36.4399 7.86519 38.2255 5.10177 40.6914 3.06108C43.1572 1.0204 46.4308 5.99699e-05 50.5122 5.99699e-05C54.5935 5.99699e-05 57.8459 0.999145 60.2692 2.99731C62.735 4.99548 64.5206 7.73765 65.626 11.2238C66.7313 14.71 67.284 18.6638 67.284 23.0853C67.284 27.5068 66.7313 31.4606 65.626 34.9468C64.5206 38.4329 62.735 41.1751 60.2692 43.1733C57.8459 45.1714 54.5935 46.1705 50.5122 46.1705ZM50.5122 38.9006C53.4456 38.9006 55.5926 37.4976 56.9531 34.6917C58.3135 31.8432 58.9937 27.9744 58.9937 23.0853C58.9937 18.1962 58.3135 14.3486 56.9531 11.5427C55.5926 8.69422 53.4456 7.26999 50.5122 7.26999C47.5787 7.26999 45.4104 8.69422 44.0075 11.5427C42.647 14.3486 41.9668 18.1962 41.9668 23.0853C41.9668 27.9744 42.647 31.8432 44.0075 34.6917C45.4104 37.4976 47.5787 38.9006 50.5122 38.9006ZM69.8399 52.8028L73.4748 36.9237H81.3825L75.1967 52.8028H69.8399ZM102.202 46.1705C98.1205 46.1705 94.8469 45.1502 92.381 43.1095C89.9152 41.0688 88.1296 38.3054 87.0242 34.8192C85.9189 31.3331 85.3662 27.4217 85.3662 23.0853C85.3662 18.7488 85.9189 14.8375 87.0242 11.3514C88.1296 7.86519 89.9152 5.10177 92.381 3.06108C94.8469 1.0204 98.1205 5.99699e-05 102.202 5.99699e-05C106.283 5.99699e-05 109.536 0.999145 111.959 2.99731C114.425 4.99548 116.21 7.73765 117.316 11.2238C118.421 14.71 118.974 18.6638 118.974 23.0853C118.974 27.5068 118.421 31.4606 117.316 34.9468C116.21 38.4329 114.425 41.1751 111.959 43.1733C109.536 45.1714 106.283 46.1705 102.202 46.1705ZM102.202 38.9006C105.135 38.9006 107.282 37.4976 108.643 34.6917C110.003 31.8432 110.683 27.9744 110.683 23.0853C110.683 18.1962 110.003 14.3486 108.643 11.5427C107.282 8.69422 105.135 7.26999 102.202 7.26999C99.2683 7.26999 97.1001 8.69422 95.6972 11.5427C94.3367 14.3486 93.6565 18.1962 93.6565 23.0853C93.6565 27.9744 94.3367 31.8432 95.6972 34.6917C97.1001 37.4976 99.2683 38.9006 102.202 38.9006ZM139.194 46.1705C135.113 46.1705 131.839 45.1502 129.373 43.1095C126.908 41.0688 125.122 38.3054 124.017 34.8192C122.911 31.3331 122.359 27.4217 122.359 23.0853C122.359 18.7488 122.911 14.8375 124.017 11.3514C125.122 7.86519 126.908 5.10177 129.373 3.06108C131.839 1.0204 135.113 5.99699e-05 139.194 5.99699e-05C143.276 5.99699e-05 146.528 0.999145 148.951 2.99731C151.417 4.99548 153.203 7.73765 154.308 11.2238C155.413 14.71 155.966 18.6638 155.966 23.0853C155.966 27.5068 155.413 31.4606 154.308 34.9468C153.203 38.4329 151.417 41.1751 148.951 43.1733C146.528 45.1714 143.276 46.1705 139.194 46.1705ZM139.194 38.9006C142.128 38.9006 144.275 37.4976 145.635 34.6917C146.996 31.8432 147.676 27.9744 147.676 23.0853C147.676 18.1962 146.996 14.3486 145.635 11.5427C144.275 8.69422 142.128 7.26999 139.194 7.26999C136.261 7.26999 134.093 8.69422 132.69 11.5427C131.329 14.3486 130.649 18.1962 130.649 23.0853C130.649 27.9744 131.329 31.8432 132.69 34.6917C134.093 37.4976 136.261 38.9006 139.194 38.9006ZM176.187 46.1705C172.105 46.1705 168.832 45.1502 166.366 43.1095C163.9 41.0688 162.114 38.3054 161.009 34.8192C159.904 31.3331 159.351 27.4217 159.351 23.0853C159.351 18.7488 159.904 14.8375 161.009 11.3514C162.114 7.86519 163.9 5.10177 166.366 3.06108C168.832 1.0204 172.105 5.99699e-05 176.187 5.99699e-05C180.268 5.99699e-05 183.52 0.999145 185.944 2.99731C188.409 4.99548 190.195 7.73765 191.3 11.2238C192.406 14.71 192.958 18.6638 192.958 23.0853C192.958 27.5068 192.406 31.4606 191.3 34.9468C190.195 38.4329 188.409 41.1751 185.944 43.1733C183.52 45.1714 180.268 46.1705 176.187 46.1705ZM176.187 38.9006C179.12 38.9006 181.267 37.4976 182.627 34.6917C183.988 31.8432 184.668 27.9744 184.668 23.0853C184.668 18.1962 183.988 14.3486 182.627 11.5427C181.267 8.69422 179.12 7.26999 176.187 7.26999C173.253 7.26999 171.085 8.69422 169.682 11.5427C168.321 14.3486 167.641 18.1962 167.641 23.0853C167.641 27.9744 168.321 31.8432 169.682 34.6917C171.085 37.4976 173.253 38.9006 176.187 38.9006ZM210.309 42.0254V30.3552H198.32V23.5317H210.309V11.8615H217.26V23.5317H229.186V30.3552H217.26V42.0254H210.309Z" fill="#149B77"/>
</svg>
