<svg width="176" height="144" viewBox="0 0 176 144" fill="none" xmlns="http://www.w3.org/2000/svg">
<path fill-rule="evenodd" clip-rule="evenodd" d="M81.2774 0.7326C80.6306 1.12642 79.7551 2.12633 79.3319 2.95459C78.8404 3.9168 78.1405 4.63782 77.3933 4.95149C76.2943 5.41265 73.6264 8.18473 72.257 10.2881C71.6948 11.1515 71.6908 11.3869 72.209 13.1294C72.5413 14.2468 72.6784 15.5369 72.5424 16.262C72.2155 18.0027 73.272 18.6794 76.317 18.6794C78.9859 18.6794 79.4766 19.1922 78.4564 20.9172C78.1123 21.4987 77.947 22.1806 78.0896 22.4317C79.6265 25.143 83.0511 25.6799 85.5287 23.5977C86.5127 22.771 86.5489 22.6403 86.1762 21.2458C85.8461 20.0106 85.8875 19.5904 86.4313 18.6714C87.1679 17.4262 87.0176 16.6024 85.7002 14.66C84.6008 13.039 84.6082 11.9135 85.7284 10.2812C86.3434 9.38522 86.7637 8.01235 87.0781 5.86942C87.6531 1.95504 87.6348 0.751998 86.9935 0.346469C86.0293 -0.263287 82.5241 -0.026851 81.2774 0.7326ZM54.259 25.4801C53.5759 26.1623 53.633 26.2787 55.9989 29.0358C58.872 32.384 61.3492 33.1877 62.7737 31.2347C63.1786 30.6799 64.1146 30.0741 64.9116 29.8516C66.9572 29.2806 66.951 28.3261 64.8893 26.428C63.9771 25.5884 63.0357 24.9014 62.7968 24.9014C62.5582 24.9014 61.6475 25.3201 60.7732 25.8318L59.1835 26.7622L57.5938 25.8318C55.7494 24.7521 55.0604 24.6796 54.259 25.4801ZM44.3993 29.7078C44.0277 29.9237 43.3582 30.8885 42.9111 31.8521C42.464 32.8158 41.4797 34.1869 40.7241 34.8987C39.4902 36.0608 39.3616 36.3543 39.4638 37.7729C39.5595 39.0971 39.7475 39.4339 40.6248 39.8518C41.5468 40.2914 41.951 40.2592 44.0222 39.5802C47.0584 38.5847 47.6117 38.6085 48.5293 39.7739C49.6555 41.2035 49.5027 42.0518 48.0064 42.6759C46.8601 43.1546 46.7238 43.3588 46.7238 44.6003C46.7238 46.4208 47.1716 46.9003 50.0219 48.134C51.332 48.7013 52.9456 49.635 53.6078 50.2093C54.9809 51.4006 56.2239 51.5276 57.7429 50.6313C58.7386 50.0438 58.9405 50.0464 61.3621 50.6737C65.3814 51.715 66.6966 50.9969 65.535 48.3965C65.2026 47.6528 64.8057 46.0563 64.6529 44.8485C64.2945 42.0189 62.7696 37.6705 61.9631 37.1789C61.4694 36.8777 61.1854 36.9802 60.6262 37.6606C60.2359 38.1356 59.9164 38.8157 59.9164 39.1711C59.9164 40.0253 59.0567 40.7083 58.3314 40.4305C58.013 40.3082 57.1617 39.4884 56.4398 38.6082C55.509 37.4735 54.754 36.9381 53.8471 36.7679C52.3926 36.4956 52.0367 35.9847 51.7538 33.7627C51.4889 31.6853 51.1411 31.3346 48.2468 30.2304C45.4932 29.1792 45.3444 29.1591 44.3993 29.7078ZM72.4669 32.9875C70.3257 33.665 70.1146 33.8329 69.2388 35.559C68.1273 37.7499 68.1874 38.666 69.5067 39.6458L70.4847 40.3726L73.6891 39.0726C75.4514 38.3578 77.0345 37.5208 77.2075 37.2122C77.8085 36.1391 78.1966 33.1599 77.7978 32.68C77.2533 32.0245 75.1212 32.1475 72.4669 32.9875ZM83.0811 33.4325C82.6842 33.9376 81.1711 38.8512 81.1711 39.6348C81.1711 39.9258 81.6556 40.8316 82.2474 41.6478C83.0555 42.7615 83.8551 43.3314 85.4539 43.9316C87.5966 44.7365 89.3018 44.7698 93.3549 44.0853C95.4664 43.7289 96.2264 44.0769 100.133 47.1883C104.042 50.3011 105.72 52.0499 105.731 53.0201C105.734 53.3569 105.81 54.9065 105.899 56.4638L106.06 59.2952L104.61 60.4595C102.601 62.0721 102.658 63.6129 104.755 64.4097C105.59 64.7263 106.108 64.6597 107.46 64.0628C108.693 63.5178 110.057 63.3018 112.65 63.2411C115.982 63.1628 116.289 63.2213 118.444 64.3427C120.862 65.6018 122.744 65.8419 123.851 65.033C124.412 64.6231 124.488 64.2421 124.29 62.8037C123.872 59.7531 122.886 58.1021 120.478 56.4148C117.028 53.9977 116.527 51.8779 119.602 52.7047C120.682 52.9953 121.322 52.9989 121.847 52.7182C123.324 51.9287 122.397 48.4935 120.47 47.6165C119.98 47.3936 118.99 46.7619 118.269 46.2129C117.389 45.542 116.109 45.0622 114.365 44.7496C112.938 44.4938 110.92 44.1348 109.882 43.951C107.561 43.5411 106.934 43.1627 105.572 41.3532C104.169 39.4884 102.411 38.6598 100.505 38.9643C99.1394 39.182 98.9254 39.0865 97.2287 37.5017C95.6302 36.0085 95.274 35.8331 94.2472 36.0366C93.6059 36.1633 92.1741 36.3587 91.0656 36.4707C89.957 36.5827 88.3351 36.9355 87.4607 37.2547C85.7706 37.8721 85.2212 37.6174 85.2077 36.2105C85.1978 35.178 84.4341 33.3842 83.9207 33.1877C83.6473 33.0826 83.2695 33.1932 83.0811 33.4325ZM16.3031 39.9861C15.0601 41.4527 12.0874 45.6171 9.69729 49.2405C7.30723 52.8639 4.35063 57.268 3.12628 59.027C0.455878 62.8652 0.304529 63.2308 0.133758 66.2533L0 68.6165L1.68462 69.421C3.70822 70.3872 4.25974 71.4003 5.35986 76.1715C5.79265 78.0484 6.70111 80.7399 7.37906 82.153C8.05701 83.5658 8.61183 85.0565 8.61183 85.4654C8.61183 85.8742 8.03466 87.0198 7.32922 88.0105C5.90515 90.0114 5.78495 90.7987 6.60546 92.7597C7.0771 93.8874 7.10641 94.8024 6.79419 98.6432C6.5908 101.145 6.40244 103.323 6.37532 103.483C6.18953 104.586 6.63661 105.624 8.22119 107.768C9.29235 109.217 10.3562 111.215 10.8311 112.668C11.3035 114.113 12.1035 115.618 12.7792 116.332C15.3192 119.014 20.3052 120.568 30.0498 121.713C32.8716 122.045 37.6539 122.871 40.6772 123.548C43.7005 124.226 48.3179 124.976 50.9381 125.214C56.0007 125.675 66.3738 125.843 72.7425 125.569C76.479 125.408 76.675 125.439 79.522 126.653C82.025 127.721 82.8825 127.906 85.3854 127.917C87.7953 127.928 88.7719 127.744 90.8706 126.881C93.0525 125.983 93.7755 125.856 95.8431 126.004C97.9763 126.156 98.8741 126.497 103.43 128.884L108.598 131.591L111.571 130.539C114.486 129.509 114.577 129.5 116.126 130.091C118.489 130.992 119.431 132.152 119.124 133.784C118.766 135.69 117.074 140.617 116.487 141.463C115.529 142.841 115.837 143.486 117.454 143.486C118.708 143.486 119.237 143.205 121.075 141.564C122.258 140.507 123.996 139.192 124.935 138.64C126.729 137.588 128.054 135.456 128.07 133.594C128.089 131.366 130.324 129.949 133.838 129.936C136.528 129.925 138.823 128.924 139.602 127.42C139.92 126.806 140.611 125.105 141.138 123.64C142.307 120.389 143.113 119.2 144.552 118.605C146.269 117.894 147.351 118.405 149.216 120.802C150.151 122.005 151.102 122.99 151.329 122.99C151.881 122.99 154.463 119.039 154.463 118.194C154.463 117.046 152.982 113.512 152.025 112.375C151.463 111.709 151.135 110.897 151.176 110.276C151.213 109.72 151.225 109.059 151.204 108.807C151.106 107.649 148.782 108.691 144.62 111.756C142.261 113.494 141.271 113.862 141.271 113C141.271 112.739 142.173 110.31 143.275 107.601C145.51 102.11 146.167 101.329 149.132 100.633C154.814 99.2998 156.028 98.2754 159.183 92.1562C161.039 88.5544 161.129 88.2579 160.729 87.0487C160.169 85.3512 159.134 84.4347 156.478 83.2825C155.269 82.758 153.119 81.7567 151.7 81.0572C150.134 80.285 148.334 79.7071 147.119 79.587C143.812 79.2591 143.512 79.1259 141.156 76.9394C139.909 75.7821 138.147 74.3272 137.24 73.7069C134.862 72.0804 131.046 70.2247 130.354 70.358C129.64 70.4952 129.263 71.7001 129.214 74.007C129.166 76.2553 128.926 76.7955 127.69 77.4335C126.299 78.1523 125.804 77.8869 124.291 75.6123C123.411 74.287 122.498 73.4283 121.417 72.9086C116.132 70.3671 109.095 70.4227 108.445 73.0111C108.18 74.0652 108.27 74.6204 109.431 79.0695C109.877 80.7805 110.384 82.7892 110.558 83.5336C110.731 84.2777 111.791 86.0894 112.913 87.5596C116.248 91.9271 116.287 92.561 113.411 95.7317C110.755 98.6611 110.84 99.4996 114.153 103.068C115.58 104.606 116.737 106.186 116.76 106.633C116.895 109.192 115.847 110.546 113.733 110.546C111.851 110.546 110.455 109.088 108.312 104.888C106.332 101.007 104.907 99.911 100.694 99.033C99.2373 98.7296 96.4844 97.7527 94.5763 96.8619C91.6493 95.496 90.6049 95.201 87.9001 94.9759L84.6935 94.7091L81.9246 92.2093C80.4016 90.8346 78.6195 89.2238 77.9646 88.6302C77.0154 87.7697 76.7736 87.265 76.7743 86.1465C76.7747 84.4091 77.4966 83.0728 80.0336 80.1126C82.2144 77.5678 83.0034 76.02 83.0034 74.287C83.0034 72.7809 83.9507 70.8352 85.027 70.131C85.7464 69.66 85.8391 69.3968 85.5899 68.5291C85.4257 67.9577 85.0769 67.1474 84.8148 66.728C84.2684 65.8543 84.6243 65.1534 87.1276 62.1738C88.5839 60.4401 89.3245 60.0093 92.0308 59.3201C94.5187 58.6862 94.6386 58.2887 93.4454 54.6218C92.2159 50.845 91.4078 49.7895 89.7456 49.7895C88.2292 49.7895 87.1617 51.0708 86.8282 53.2921C86.5445 55.181 86.1685 55.3282 85.4034 53.8502C84.5173 52.1388 83.7877 51.6195 82.2705 51.6195C80.5214 51.6195 79.9695 51.0858 78.9771 48.4367C77.9096 45.5874 77.0972 44.2995 76.3672 44.2995C75.3814 44.2995 75.2564 45.2467 75.5221 50.7045C75.7691 55.7787 75.7596 55.8713 74.8988 56.8613L74.0251 57.8667L71.0934 57.1076C67.449 56.1637 59.6778 55.7542 56.0685 56.3156C51.7461 56.988 50.1883 56.2819 48.0016 52.6589C47.0624 51.103 44.6207 49.4692 40.978 47.9595C37.1698 46.3809 36.2687 45.691 34.9369 43.3343C33.4051 40.6237 32.5875 40.2738 27.7777 40.2713C23.1178 40.2691 21.4944 39.8899 19.8076 38.4105L18.5634 37.3198L16.3031 39.9861ZM163.041 93.181C162.57 94.1725 162.482 95.0052 162.663 96.7686C162.793 98.0316 162.736 99.9191 162.538 100.963C161.844 104.618 163.616 106.026 165.615 103.409C166.271 102.551 166.894 102.128 167.504 102.128C168.005 102.128 168.822 101.861 169.32 101.535C170.084 101.035 170.398 101.014 171.332 101.4C172.284 101.794 172.537 101.769 173.141 101.223C173.528 100.874 173.957 100.07 174.094 99.436C174.232 98.8028 174.695 97.6707 175.123 96.9201C175.735 95.8477 175.814 95.4173 175.492 94.9071C175.145 94.3577 174.53 94.2585 171.461 94.2585C168.054 94.2585 167.715 94.1886 165.747 93.0741L163.654 91.8898L163.041 93.181ZM161.892 113.718C161.458 114.087 160.413 115.788 159.569 117.5C158.726 119.211 157.646 121.03 157.169 121.542C156.642 122.108 156.211 123.14 156.069 124.173C155.845 125.807 155.883 125.9 157.074 126.633C158.915 127.765 159.615 127.497 160.489 125.325C160.904 124.294 161.925 122.712 162.759 121.81C163.592 120.907 164.376 119.849 164.5 119.459C164.623 119.07 165.556 118.266 166.571 117.674C168.309 116.66 169.225 115.284 168.586 114.646C168.347 114.408 165.774 113.679 163.611 113.237C163.017 113.116 162.396 113.289 161.892 113.718Z" fill="#149B77"/>
</svg>
