<svg width="139" height="139" viewBox="0 0 139 139" fill="none" xmlns="http://www.w3.org/2000/svg">
<path fill-rule="evenodd" clip-rule="evenodd" d="M87.2103 15.7338L79.0752 23.8722L87.2798 32.0768L95.4844 40.2815L103.688 32.0774L111.893 23.8733L110.206 22.1868L108.519 20.5001L105.858 23.1154C104.394 24.5536 102.878 25.8104 102.489 25.908C102.061 26.0152 101.476 25.9249 101.007 25.6791C99.82 25.0571 93.6539 18.677 93.4486 17.8586C93.1893 16.8256 93.6143 16.1751 96.3888 13.3613L98.8614 10.8537L97.2493 9.22454C96.3625 8.32856 95.5715 7.59534 95.4912 7.59534C95.4109 7.59534 91.6846 11.2577 87.2103 15.7338ZM100.229 15.7362L98.6151 17.3665L100.305 19.0565L101.995 20.7462L103.684 19.0565L105.374 17.3665L103.761 15.7362C102.873 14.8394 102.079 14.1057 101.995 14.1057C101.911 14.1057 101.116 14.8394 100.229 15.7362ZM50.3175 39.606L48.7054 41.2352L51.1779 43.7428C53.9524 46.5566 54.3775 47.2071 54.1182 48.24C53.9128 49.0584 47.7467 55.4385 46.56 56.0606C46.0912 56.3063 45.5056 56.3966 45.0778 56.2895C44.689 56.1918 43.173 54.9351 41.709 53.4968L39.0473 50.8816L37.3625 52.5664L35.678 54.251L38.9253 57.5069L42.1728 60.7629H52.0823H61.9918L65.2399 57.5064L68.4878 54.2501L60.3545 46.1133C55.8814 41.6383 52.1558 37.9768 52.0755 37.9768C51.9953 37.9768 51.2042 38.71 50.3175 39.606ZM43.8058 46.1177L42.1923 47.748L43.8823 49.4379L45.572 51.1276L47.2617 49.4379L48.9517 47.748L47.3382 46.1177C46.4506 45.2209 45.6558 44.4871 45.572 44.4871C45.4882 44.4871 44.6934 45.2209 43.8058 46.1177ZM2.16992 56.4227V58.5928H8.79444H15.4187L15.573 59.3388C15.6579 59.7489 18.0505 74.0437 20.8898 91.1045C23.7288 108.165 26.1743 122.353 26.324 122.633C26.8329 123.584 27.545 123.696 33.0679 123.696H38.5029L37.847 124.662C35.9476 127.461 36.9732 131.72 39.997 133.59C41.1724 134.316 41.5636 134.411 43.4019 134.411C45.2403 134.411 45.6314 134.316 46.8068 133.59C49.8306 131.72 50.8562 127.461 48.9568 124.662L48.3009 123.696H61.0421H73.7834V121.526V119.356H51.9681H30.1531L29.9988 118.61C29.9139 118.2 27.5214 103.905 24.682 86.844C21.843 69.7832 19.3976 55.5956 19.2478 55.3159C19.0984 55.0363 18.7425 54.6828 18.4574 54.5301C18.1381 54.3592 14.9098 54.2526 10.0545 54.2526H2.16992V56.4227ZM28.5801 65.5778C28.6536 65.839 28.793 66.6018 28.8893 67.2732C28.9856 67.9446 29.1251 68.7074 29.1986 68.9686C29.3255 69.4178 31.3714 69.4433 67.2731 69.4433C103.175 69.4433 105.221 69.4178 105.348 68.9686C105.421 68.7074 105.56 67.9446 105.657 67.2732C105.753 66.6018 105.893 65.839 105.966 65.5778C106.094 65.1272 104.121 65.1031 67.2731 65.1031C30.4247 65.1031 28.4526 65.1272 28.5801 65.5778ZM30.1049 74.1226C30.1022 74.3092 31.5352 83.0979 33.29 93.6535L36.4801 112.845H54.0465H71.6133V110.552C71.6133 107.987 71.9062 107.078 72.8765 106.636C73.3035 106.442 75.8873 106.335 80.1708 106.335H86.804V94.2766C86.804 86.0169 86.8989 82.0098 87.1051 81.5571C87.6395 80.3847 88.2886 80.2938 96.1227 80.2938H103.517L103.979 77.3778C104.233 75.7738 104.44 74.3092 104.439 74.1226C104.437 73.853 96.8212 73.7835 67.2731 73.7835C37.7263 73.7835 30.1089 73.853 30.1049 74.1226ZM91.1442 95.4846V106.335H104.165H117.185V95.4846V84.634H113.93H110.675V89.0971C110.675 93.8643 110.505 94.6854 109.412 95.1835C109.011 95.3663 106.948 95.4846 104.165 95.4846C101.382 95.4846 99.319 95.3663 98.9178 95.1835C97.8249 94.6854 97.6545 93.8643 97.6545 89.0971V84.634H94.3994H91.1442V95.4846ZM101.995 87.8892V91.1444H104.165H106.335V87.8892V84.634H104.165H101.995V87.8892ZM75.9535 121.526V132.376H88.9741H101.995V121.526V110.675H98.7396H95.4844V115.138C95.4844 119.906 95.3141 120.727 94.2211 121.225C93.8199 121.408 91.7573 121.526 88.9741 121.526C86.1909 121.526 84.1283 121.408 83.7271 121.225C82.6341 120.727 82.4638 119.906 82.4638 115.138V110.675H79.2086H75.9535V121.526ZM86.804 113.93V117.186H88.9741H91.1442V113.93V110.675H88.9741H86.804V113.93ZM106.335 121.526V132.376H119.356H132.376V121.526V110.675H129.121H125.866V115.138C125.866 119.906 125.696 120.727 124.603 121.225C124.201 121.408 122.139 121.526 119.356 121.526C116.572 121.526 114.51 121.408 114.109 121.225C113.016 120.727 112.845 119.906 112.845 115.138V110.675H109.59H106.335V121.526ZM117.185 113.93V117.186H119.356H121.526V113.93V110.675H119.356H117.185V113.93Z" fill="#149B77"/>
</svg>
