<svg width="95" height="96" viewBox="0 0 95 96" fill="none" xmlns="http://www.w3.org/2000/svg">
<path fill-rule="evenodd" clip-rule="evenodd" d="M51.7112 0.522081C51.5089 0.85486 51.1199 3.15502 50.8466 5.63397C49.6924 16.1192 48.0707 21.4669 44.1539 27.7101L42.2142 30.8013L38.3049 28.1894C34.1433 25.4099 30.5334 24.3335 28.9453 25.3994C27.2266 26.5533 -0.584919 93.6313 0.00938895 95.1892C0.289371 95.9232 1.01732 96.1658 2.11037 95.8886C5.82629 94.9473 69.3859 67.6331 69.9922 66.7167C71.0666 65.0956 69.9892 61.4748 67.155 57.1803C64.1125 52.5687 64.0887 52.6115 70.8269 50.5795C75.3208 49.2236 77.0507 47.9503 76.2257 46.6072C75.4753 45.3857 73.175 45.6659 67.3484 47.6896L61.9735 49.5564L53.6054 41.2211L45.2373 32.8858L46.6268 30.9034C51.2939 24.2441 54.2266 14.9067 54.4259 6.07116C54.5327 1.35215 54.3505 0.382358 53.3164 0.170521C52.6363 0.0307985 51.9136 0.189301 51.7112 0.522081ZM68.7057 1.84419C67.6978 2.8583 66.8728 4.56351 66.8728 5.63397C66.8728 8.13845 69.9832 11.2679 72.4724 11.2679C74.9617 11.2679 78.0721 8.13845 78.0721 5.63397C78.0721 3.12948 74.9617 0 72.4724 0C71.4085 0 69.7137 0.830072 68.7057 1.84419ZM23.9422 3.00478C23.2531 4.12707 24.2118 5.25837 25.8528 5.25837C26.804 5.25837 27.302 4.7423 27.302 3.75598C27.302 2.16269 24.8031 1.6038 23.9422 3.00478ZM70.8777 4.87751C70.6193 5.55584 70.7657 6.4708 71.2032 6.911C72.341 8.05582 74.4958 7.0094 74.1986 5.45743C73.8679 3.72818 71.4757 3.31052 70.8777 4.87751ZM32.7844 8.68833C31.2389 10.2433 30.9567 11.0786 31.327 13.0077C32.2536 17.8349 37.082 19.5251 40.4014 16.1845C42.8959 13.6755 42.8392 10.353 40.2671 8.31799C37.63 6.23042 35.1027 6.35587 32.7844 8.68833ZM15.8795 8.73791C15.5921 9.02787 15.3561 9.86094 15.3561 10.5896C15.3561 11.3919 14.6931 12.0094 13.6762 12.1543C12.5735 12.3121 11.9963 12.9108 11.9963 13.8971C11.9963 14.8834 12.5735 15.4821 13.6762 15.6399C14.7349 15.7909 15.3561 16.3993 15.3561 17.2858C15.3561 18.0587 15.6615 18.8813 16.0356 19.1134C17.2003 19.8376 19.0892 18.6845 19.0892 17.2497C19.0892 16.4009 19.7283 15.7886 20.7691 15.6399C23.0411 15.3146 23.0784 12.4849 20.8147 12.1611C19.8 12.0154 19.093 11.307 18.9481 10.2906C18.7174 8.66279 16.8785 7.73281 15.8795 8.73791ZM35.2655 11.5887C34.7242 13.0092 36.4018 14.3629 37.7017 13.5546C38.9381 12.7853 38.2183 10.5167 36.7378 10.5167C36.1532 10.5167 35.4909 10.999 35.2655 11.5887ZM60.6505 15.3447C60.0816 16.8373 62.1922 18.5312 63.2704 17.4465C64.3014 16.4091 63.5294 14.2727 62.1228 14.2727C61.5382 14.2727 60.876 14.755 60.6505 15.3447ZM81.8052 19.8361C75.3342 21.6742 69.1127 25.6 69.1127 27.8453C69.1127 29.7173 71.3212 29.7466 73.6782 27.9062C76.6729 25.5677 78.9859 24.5333 84.045 23.2698C87.9267 22.3 88.898 21.7666 88.898 20.606C88.898 18.7851 86.4446 18.5185 81.8052 19.8361ZM92.3355 19.4823C91.0647 20.2733 91.7867 22.5359 93.3106 22.5359C94.9494 22.5359 95.5624 21.0312 94.3991 19.8616C93.7578 19.2163 92.9903 19.0751 92.3355 19.4823ZM59.5656 27.1843C59.0676 27.6846 58.66 28.5342 58.66 29.0713C58.66 29.6084 58.2232 30.0478 57.6894 30.0478C56.2551 30.0478 54.9859 31.5825 55.4383 32.7687C55.6556 33.3381 56.4328 33.8038 57.166 33.8038C57.9641 33.8038 58.6861 34.5565 58.9669 35.6818C59.5746 38.1179 62.1908 38.2561 62.5275 35.8696C62.6835 34.7683 63.3667 34.0938 64.4903 33.9338C66.7937 33.6047 66.4883 30.5286 64.1185 30.1898C63.1263 30.0471 62.3938 29.3334 62.252 28.3704C61.972 26.4594 60.7998 25.9418 59.5656 27.1843ZM32.0296 30.3663C34.754 37.5079 52.8058 56.3547 62.6193 62.3027C65.8462 64.258 66.6503 64.0139 65.3467 61.4748C63.0979 57.0954 60.9969 55.0273 59.1565 55.3811C56.8987 55.8153 56.0842 54.6187 57.2041 52.5138C57.9783 51.0588 57.3586 50.2272 50.4703 43.4837C44.0382 37.1864 42.6719 36.1708 41.4848 36.8101C39.8945 37.6664 38.7723 36.5344 39.118 34.4213C39.2502 33.6107 38.1534 32.4704 36.0472 31.2287C32.3163 29.0292 31.4487 28.8429 32.0296 30.3663ZM82.0404 33.0646C78.7119 34.4002 77.7368 39.4761 80.3119 42.0669C82.2905 44.0576 86.3655 44.0524 88.1604 42.0572C91.9256 37.8708 87.2368 30.9808 82.0404 33.0646ZM27.747 36.3759C26.2187 40.0575 26.2441 41.5494 27.862 43.03C29.8682 44.8666 32.0251 49.3596 31.5271 50.6644C30.723 52.7745 28.9707 51.8903 26.8944 48.3259C24.9935 45.0627 24.7822 44.9162 23.837 46.2158C22.337 48.2801 22.5505 49.5271 25.5034 55.9581C29.064 63.7111 30.673 71.6235 29.6598 76.4011C29.2425 78.3715 28.9983 80.0812 29.1178 80.2014C29.2373 80.3216 30.1675 80.1015 31.1852 79.7124C34.3822 78.4894 38.4565 66.2727 38.4886 57.812C38.5132 51.2916 34.9048 41.3451 30.3385 35.3453L28.9386 33.5063L27.747 36.3759ZM82.5518 38.311C82.5518 39.3123 83.0498 39.8134 84.045 39.8134C85.0403 39.8134 85.5383 39.3123 85.5383 38.311C85.5383 37.3096 85.0403 36.8086 84.045 36.8086C83.0498 36.8086 82.5518 37.3096 82.5518 38.311ZM42.0395 55.8116C42.3972 61.5777 41.0727 69.7139 38.8694 75.2848C38.4222 76.4161 38.9007 76.3575 42.7234 74.8101C47.4398 72.9005 49.8641 70.2165 51.1819 65.4426C52.6087 60.2744 52.2129 59.2746 46.7671 54.2874L41.655 49.6059L42.0395 55.8116ZM30.4229 55.0251C30.5543 55.9543 31.1658 56.7153 31.7817 56.7153C32.3977 56.7153 33.0092 55.9543 33.1406 55.0251C33.3235 53.724 33.0107 53.3349 31.7817 53.3349C30.5528 53.3349 30.24 53.724 30.4229 55.0251ZM80.4665 54.2739C79.36 55.6155 80.5688 57.4409 82.1583 56.8272C83.4992 56.3089 83.4612 54.0147 82.1038 53.5602C81.6521 53.4085 80.9152 53.73 80.4665 54.2739ZM17.6998 60.454C16.4104 63.5436 15.3561 66.4275 15.3561 66.8632C15.3561 67.2989 16.055 69.7425 16.9098 72.2943C17.932 75.3479 18.3784 78.2926 18.2164 80.9105C18.0805 83.0972 18.2381 84.8866 18.5666 84.8858C20.4981 84.8828 23.831 82.1838 24.8076 79.8326C26.1224 76.667 26.2426 69.409 25.045 65.4832C23.5152 60.466 21.1641 54.8373 20.5996 54.8373C20.2935 54.8373 18.9884 57.365 17.6998 60.454ZM54.8097 66.1803C54.1922 68.2048 53.9234 69.8612 54.2116 69.8612C54.906 69.8612 61.6465 66.8549 61.6465 66.5454C61.6465 66.4132 60.3608 65.4487 58.7892 64.4022L55.9319 62.5002L54.8097 66.1803ZM85.7794 68.8103C85.1425 70.4794 87.1315 71.5844 88.4262 70.2818C88.9884 69.7162 89.2206 68.8839 88.9421 68.4309C88.191 67.208 86.3043 67.4341 85.7794 68.8103ZM9.10917 81.0502C7.15901 85.7279 5.70833 89.7018 5.88677 89.8805C6.06447 90.0601 7.63535 89.6326 9.37646 88.9318C11.679 88.0048 12.8243 86.9787 13.5762 85.1683C14.8454 82.1109 14.8551 77.736 13.5986 74.7717C12.6593 72.555 12.6399 72.582 9.10917 81.0502ZM77.583 76.4634C77.3904 77.2034 76.4982 78.1326 75.5993 78.5292C73.4908 79.4607 73.4908 81.4371 75.6 81.7383C76.6147 81.8841 77.3217 82.5924 77.4666 83.6088C77.8003 85.9593 80.1499 86.1636 80.9988 83.9153C81.3796 82.9094 82.3883 81.9021 83.2409 81.6775C85.3912 81.1118 85.1859 79.004 82.9251 78.4331C81.7574 78.1378 81.0585 77.4295 81.0585 76.5408C81.0585 74.6763 78.0646 74.6102 77.583 76.4634Z" fill="#149B77"/>
</svg>
