<svg width="86" height="95" viewBox="0 0 86 95" fill="none" xmlns="http://www.w3.org/2000/svg">
<path fill-rule="evenodd" clip-rule="evenodd" d="M19.041 0.90499C17.1321 2.95388 16.5964 8.60059 18.0159 11.7135C18.4885 12.75 20.218 14.7283 22.202 16.5011C24.3772 18.4449 25.5825 19.8516 25.5825 20.447C25.5825 22.1973 23.6515 25.3548 20.6451 28.5198C17.485 31.8464 16.947 33.269 18.3264 34.6488C19.7476 36.07 21.3028 35.5149 24.1135 32.5822C27.7723 28.7649 29.9108 25.387 30.5261 22.4526C31.2955 18.7845 30.356 16.6831 26.3669 13.1502C22.6777 9.88319 21.9109 8.43276 22.5553 5.94308C23.4833 2.35763 23.5 1.76359 22.6958 0.875398C21.6844 -0.24246 20.0979 -0.229651 19.041 0.90499ZM33.3969 0.79855C31.2151 3.20961 30.6533 8.50298 32.2331 11.7669C32.7335 12.7995 33.9755 14.3771 34.9935 15.2724C39.2671 19.0297 39.7158 19.5358 39.7158 20.6002C39.7158 22.381 38.155 24.9096 34.8672 28.4557C31.5909 31.989 31.1078 33.2853 32.5736 34.6117C34.2153 36.0974 35.4471 35.5573 38.9769 31.8049C43.7112 26.7725 45.5388 22.6703 44.8189 18.6944C44.5724 17.3315 43.758 16.2829 40.5144 13.1524L36.5142 9.29136L36.7779 6.96908C36.9232 5.69178 37.1705 3.99312 37.3273 3.19415C37.837 0.60024 35.0911 -1.07368 33.3969 0.79855ZM47.4905 0.842274C46.3713 2.07894 45.4995 4.75588 45.4769 7.02472C45.4354 11.1645 46.6889 13.2279 51.9756 17.7232C53.3178 18.8645 53.8492 19.6524 53.8492 20.5013C53.8492 22.4071 52.2101 25.0955 48.9458 28.5445C45.7159 31.9568 45.2296 33.2747 46.707 34.6117C48.3482 36.097 49.5805 35.5573 53.1063 31.8093C60.0577 24.4202 60.9953 18.7757 56.0155 14.2968C50.9876 9.77454 50.7575 9.48216 50.7575 7.62362C50.7575 6.65284 51.0711 5.10789 51.4549 4.19011C52.1099 2.62219 52.1006 2.45215 51.3008 1.37581C50.2213 -0.0768339 48.5359 -0.312684 47.4905 0.842274ZM7.47152 42.3744C2.4299 43.9352 -0.510717 48.2009 0.146925 52.9987C0.396467 54.8175 10.1149 77.3663 11.9505 80.3842C13.059 82.2074 15.6185 83.7723 18.8378 84.5946C21.1773 85.1922 24.2518 85.2775 39.3859 85.1635L57.1829 85.0301L60.1712 83.5581C63.6153 81.8621 64.3445 80.9204 67.0727 74.651L68.8985 70.4551L71.9288 70.3951C73.5956 70.3619 75.9577 70.0037 77.1776 69.5983C81.5456 68.1474 85.2009 63.5678 85.889 58.6834C86.7339 52.6838 81.5907 46.3843 75.8477 46.3843C75.2475 46.3843 74.2824 45.8711 73.6906 45.2373C73.1019 44.6061 71.825 43.6623 70.8533 43.1394C69.0982 42.1946 68.8866 42.188 38.8325 42.1098C22.1927 42.067 8.08014 42.1858 7.47152 42.3744ZM8.08721 47.7005C6.70877 48.2574 5.26584 50.305 5.26584 51.7046C5.26584 53.4302 15.7183 76.8527 17.0265 78.0589C18.9619 79.8428 20.7162 79.9867 38.9345 79.8551C55.5491 79.7354 56.3525 79.6913 58.0406 78.8057C59.7454 77.9113 59.976 77.4953 65.1806 65.8962C68.1384 59.3044 70.6824 53.345 70.8343 52.6533C71.2261 50.8707 70.4483 49.1783 68.7665 48.1527C67.358 47.2941 66.5511 47.2716 38.17 47.2972C22.1375 47.3118 8.60042 47.4933 8.08721 47.7005ZM76.2271 51.9789C76.065 52.1405 75.9307 52.7867 75.9285 53.4143C75.9263 54.0419 74.9326 56.8302 73.7202 59.6104C72.5078 62.3912 71.5158 64.8256 71.5158 65.0209C71.5158 66.1219 76.008 64.7872 77.9032 63.123C81.1499 60.2725 81.5496 55.8881 78.8126 53.1511C77.345 51.6834 76.7787 51.4268 76.2271 51.9789ZM0.851822 90.5483C-0.254111 91.6542 -0.287235 93.2769 0.776298 94.2393C1.52006 94.9124 4.61659 94.9637 38.4116 94.8599L75.236 94.7468L75.9064 93.5525C76.5261 92.4488 76.5071 92.2642 75.6551 91.1234L74.7329 89.8885L38.2354 89.7754C2.2148 89.6641 1.72588 89.6742 0.851822 90.5483Z" fill="#149B77"/>
</svg>
